<?xml version="1.0" encoding="UTF-8" standalone="no"?>
<!DOCTYPE svg PUBLIC "-//W3C//DTD SVG 1.1//EN"
 "http://www.w3.org/Graphics/SVG/1.1/DTD/svg11.dtd">
<!-- Generated by graphviz version 2.44.1 (20200629.0846)
 -->
<!-- Pages: 1 -->
<svg width="1130pt" height="337pt"
 viewBox="0.00 0.00 1130.15 336.62" xmlns="http://www.w3.org/2000/svg" xmlns:xlink="http://www.w3.org/1999/xlink">
<g id="graph0" class="graph" transform="scale(1 1) rotate(0) translate(4 332.62)">
<polygon fill="white" stroke="transparent" points="-4,4 -4,-332.62 1126.15,-332.62 1126.15,4 -4,4"/>
<!-- 00 -->
<g id="node1" class="node">
<title>00</title>
<polygon fill="lightgray" stroke="black" points="40.58,-310.04 14.58,-310.04 14.58,-292.04 40.58,-292.04 40.58,-310.04"/>
<text text-anchor="middle" x="27.58" y="-298.84" font-family="Times,serif" font-size="9.00">00</text>
</g>
<!-- 67474 -->
<g id="node29" class="node">
<title>67474</title>
<ellipse fill="white" stroke="black" cx="27.58" cy="-209.89" rx="27.65" ry="27.65"/>
<text text-anchor="middle" x="27.58" y="-207.69" font-family="Times,serif" font-size="9.00">67474</text>
</g>
<!-- 00&#45;&gt;67474 -->
<g id="edge5" class="edge">
<title>00&#45;&gt;67474</title>
<path fill="none" stroke="red" stroke-width="0.51" d="M27.58,-291.81C27.58,-281.84 27.58,-264.36 27.58,-248.19"/>
<polygon fill="red" stroke="red" stroke-width="0.51" points="31.08,-247.85 27.58,-237.85 24.08,-247.85 31.08,-247.85"/>
</g>
<!-- 01 -->
<g id="node2" class="node">
<title>01</title>
<polygon fill="lightgray" stroke="black" points="172.58,-218.89 146.58,-218.89 146.58,-200.89 172.58,-200.89 172.58,-218.89"/>
<text text-anchor="middle" x="159.58" y="-207.69" font-family="Times,serif" font-size="9.00">01</text>
</g>
<!-- 66177 -->
<g id="node21" class="node">
<title>66177</title>
<ellipse fill="white" stroke="black" cx="189.58" cy="-118.73" rx="27.65" ry="27.65"/>
<text text-anchor="middle" x="189.58" y="-116.53" font-family="Times,serif" font-size="9.00">66177</text>
</g>
<!-- 01&#45;&gt;66177 -->
<g id="edge1" class="edge">
<title>01&#45;&gt;66177</title>
<path fill="none" stroke="red" stroke-width="0.27" stroke-dasharray="1,5" d="M162.35,-200.66C165.86,-190.21 172.15,-171.51 177.8,-154.72"/>
<polygon fill="red" stroke="red" stroke-width="0.27" points="181.16,-155.72 181.03,-145.13 174.52,-153.49 181.16,-155.72"/>
</g>
<!-- 02 -->
<g id="node3" class="node">
<title>02</title>
<polygon fill="lightgray" stroke="black" points="363.58,-218.89 337.58,-218.89 337.58,-200.89 363.58,-200.89 363.58,-218.89"/>
<text text-anchor="middle" x="350.58" y="-207.69" font-family="Times,serif" font-size="9.00">02</text>
</g>
<!-- 67277 -->
<g id="node26" class="node">
<title>67277</title>
<ellipse fill="white" stroke="black" cx="391.58" cy="-118.73" rx="27.65" ry="27.65"/>
<text text-anchor="middle" x="391.58" y="-116.53" font-family="Times,serif" font-size="9.00">67277</text>
</g>
<!-- 02&#45;&gt;67277 -->
<g id="edge9" class="edge">
<title>02&#45;&gt;67277</title>
<path fill="none" stroke="red" stroke-width="0.23" d="M354.36,-200.66C359.31,-189.89 368.29,-170.37 376.18,-153.2"/>
<polygon fill="red" stroke="red" stroke-width="0.23" points="379.43,-154.52 380.43,-143.98 373.07,-151.6 379.43,-154.52"/>
</g>
<!-- 03 -->
<g id="node4" class="node">
<title>03</title>
<polygon fill="lightgray" stroke="black" points="483.58,-310.04 457.58,-310.04 457.58,-292.04 483.58,-292.04 483.58,-310.04"/>
<text text-anchor="middle" x="470.58" y="-298.84" font-family="Times,serif" font-size="9.00">03</text>
</g>
<!-- 10 -->
<g id="node5" class="node">
<title>10</title>
<polygon fill="lightgray" stroke="black" points="527.58,-310.04 501.58,-310.04 501.58,-292.04 527.58,-292.04 527.58,-310.04"/>
<text text-anchor="middle" x="514.58" y="-298.84" font-family="Times,serif" font-size="9.00">10</text>
</g>
<!-- 11 -->
<g id="node6" class="node">
<title>11</title>
<polygon fill="lightgray" stroke="black" points="571.58,-310.04 545.58,-310.04 545.58,-292.04 571.58,-292.04 571.58,-310.04"/>
<text text-anchor="middle" x="558.58" y="-298.84" font-family="Times,serif" font-size="9.00">11</text>
</g>
<!-- 12 -->
<g id="node7" class="node">
<title>12</title>
<polygon fill="lightgray" stroke="black" points="615.58,-310.04 589.58,-310.04 589.58,-292.04 615.58,-292.04 615.58,-310.04"/>
<text text-anchor="middle" x="602.58" y="-298.84" font-family="Times,serif" font-size="9.00">12</text>
</g>
<!-- 13 -->
<g id="node8" class="node">
<title>13</title>
<polygon fill="lightgray" stroke="black" points="659.58,-310.04 633.58,-310.04 633.58,-292.04 659.58,-292.04 659.58,-310.04"/>
<text text-anchor="middle" x="646.58" y="-298.84" font-family="Times,serif" font-size="9.00">13</text>
</g>
<!-- 20 -->
<g id="node9" class="node">
<title>20</title>
<polygon fill="lightgray" stroke="black" points="194.58,-310.04 168.58,-310.04 168.58,-292.04 194.58,-292.04 194.58,-310.04"/>
<text text-anchor="middle" x="181.58" y="-298.84" font-family="Times,serif" font-size="9.00">20</text>
</g>
<!-- 67698 -->
<g id="node30" class="node">
<title>67698</title>
<ellipse fill="white" stroke="black" cx="218.58" cy="-209.89" rx="27.65" ry="27.65"/>
<text text-anchor="middle" x="218.58" y="-207.69" font-family="Times,serif" font-size="9.00">67698</text>
</g>
<!-- 20&#45;&gt;67698 -->
<g id="edge10" class="edge">
<title>20&#45;&gt;67698</title>
<path fill="none" stroke="red" stroke-width="0.26" d="M184.99,-291.81C189.39,-281.22 197.3,-262.15 204.34,-245.18"/>
<polygon fill="red" stroke="red" stroke-width="0.26" points="207.76,-246.09 208.36,-235.51 201.29,-243.41 207.76,-246.09"/>
</g>
<!-- 21 -->
<g id="node10" class="node">
<title>21</title>
<polygon fill="lightgray" stroke="black" points="703.58,-310.04 677.58,-310.04 677.58,-292.04 703.58,-292.04 703.58,-310.04"/>
<text text-anchor="middle" x="690.58" y="-298.84" font-family="Times,serif" font-size="9.00">21</text>
</g>
<!-- 22 -->
<g id="node11" class="node">
<title>22</title>
<polygon fill="lightgray" stroke="black" points="747.58,-310.04 721.58,-310.04 721.58,-292.04 747.58,-292.04 747.58,-310.04"/>
<text text-anchor="middle" x="734.58" y="-298.84" font-family="Times,serif" font-size="9.00">22</text>
</g>
<!-- 23 -->
<g id="node12" class="node">
<title>23</title>
<polygon fill="lightgray" stroke="black" points="791.58,-310.04 765.58,-310.04 765.58,-292.04 791.58,-292.04 791.58,-310.04"/>
<text text-anchor="middle" x="778.58" y="-298.84" font-family="Times,serif" font-size="9.00">23</text>
</g>
<!-- 30 -->
<g id="node13" class="node">
<title>30</title>
<polygon fill="lightgray" stroke="black" points="835.58,-310.04 809.58,-310.04 809.58,-292.04 835.58,-292.04 835.58,-310.04"/>
<text text-anchor="middle" x="822.58" y="-298.84" font-family="Times,serif" font-size="9.00">30</text>
</g>
<!-- 31 -->
<g id="node14" class="node">
<title>31</title>
<polygon fill="lightgray" stroke="black" points="879.58,-310.04 853.58,-310.04 853.58,-292.04 879.58,-292.04 879.58,-310.04"/>
<text text-anchor="middle" x="866.58" y="-298.84" font-family="Times,serif" font-size="9.00">31</text>
</g>
<!-- 32 -->
<g id="node15" class="node">
<title>32</title>
<polygon fill="lightgray" stroke="black" points="238.58,-310.04 212.58,-310.04 212.58,-292.04 238.58,-292.04 238.58,-310.04"/>
<text text-anchor="middle" x="225.58" y="-298.84" font-family="Times,serif" font-size="9.00">32</text>
</g>
<!-- 32&#45;&gt;67698 -->
<g id="edge15" class="edge">
<title>32&#45;&gt;67698</title>
<path fill="none" stroke="red" stroke-width="0.26" d="M224.93,-291.81C224.14,-281.77 222.76,-264.11 221.48,-247.85"/>
<polygon fill="red" stroke="red" stroke-width="0.26" points="224.94,-247.15 220.66,-237.45 217.96,-247.7 224.94,-247.15"/>
</g>
<!-- 33 -->
<g id="node16" class="node">
<title>33</title>
<polygon fill="lightgray" stroke="black" points="923.58,-310.04 897.58,-310.04 897.58,-292.04 923.58,-292.04 923.58,-310.04"/>
<text text-anchor="middle" x="910.58" y="-298.84" font-family="Times,serif" font-size="9.00">33</text>
</g>
<!-- right -->
<g id="node18" class="node">
<title>right</title>
<ellipse fill="lightblue" stroke="black" cx="910.58" cy="-209.89" rx="23.17" ry="23.17"/>
<text text-anchor="middle" x="910.58" y="-207.69" font-family="Times,serif" font-size="9.00">right</text>
</g>
<!-- 33&#45;&gt;right -->
<g id="edge2" class="edge">
<title>33&#45;&gt;right</title>
<path fill="none" stroke="green" stroke-width="1.46" d="M910.58,-291.81C910.58,-280.89 910.58,-260.95 910.58,-243.6"/>
<polygon fill="green" stroke="green" stroke-width="1.46" points="914.08,-243.24 910.58,-233.24 907.08,-243.24 914.08,-243.24"/>
</g>
<!-- left -->
<g id="node17" class="node">
<title>left</title>
<ellipse fill="lightblue" stroke="black" cx="419.58" cy="-301.04" rx="19.6" ry="19.6"/>
<text text-anchor="middle" x="419.58" y="-298.84" font-family="Times,serif" font-size="9.00">left</text>
</g>
<!-- left&#45;&gt;67277 -->
<g id="edge11" class="edge">
<title>left&#45;&gt;67277</title>
<path fill="none" stroke="red" stroke-width="0.24" stroke-dasharray="1,5" d="M416.69,-281.42C412.11,-251.98 403.13,-194.12 397.24,-156.2"/>
<polygon fill="red" stroke="red" stroke-width="0.24" points="400.66,-155.42 395.67,-146.07 393.74,-156.49 400.66,-155.42"/>
</g>
<!-- 67899 -->
<g id="node31" class="node">
<title>67899</title>
<ellipse fill="white" stroke="black" cx="447.58" cy="-209.89" rx="27.65" ry="27.65"/>
<text text-anchor="middle" x="447.58" y="-207.69" font-family="Times,serif" font-size="9.00">67899</text>
</g>
<!-- left&#45;&gt;67899 -->
<g id="edge12" class="edge">
<title>left&#45;&gt;67899</title>
<path fill="none" stroke="green" stroke-width="0.25" d="M425.24,-282C428.5,-271.64 432.69,-258.28 436.57,-245.93"/>
<polygon fill="green" stroke="green" stroke-width="0.25" points="439.93,-246.92 439.59,-236.33 433.25,-244.83 439.93,-246.92"/>
</g>
<!-- up -->
<g id="node19" class="node">
<title>up</title>
<ellipse fill="lightblue" stroke="black" cx="959.58" cy="-301.04" rx="18.27" ry="18.27"/>
<text text-anchor="middle" x="959.58" y="-298.84" font-family="Times,serif" font-size="9.00">up</text>
</g>
<!-- down -->
<g id="node20" class="node">
<title>down</title>
<ellipse fill="lightblue" stroke="black" cx="1022.58" cy="-301.04" rx="26.33" ry="26.33"/>
<text text-anchor="middle" x="1022.58" y="-298.84" font-family="Times,serif" font-size="9.00">down</text>
</g>
<!-- 67527 -->
<g id="node22" class="node">
<title>67527</title>
<ellipse fill="white" stroke="black" cx="391.58" cy="-27.58" rx="27.65" ry="27.65"/>
<text text-anchor="middle" x="391.58" y="-25.38" font-family="Times,serif" font-size="9.00">67527</text>
</g>
<!-- 67656 -->
<g id="node23" class="node">
<title>67656</title>
<ellipse fill="white" stroke="black" cx="291.58" cy="-118.73" rx="27.65" ry="27.65"/>
<text text-anchor="middle" x="291.58" y="-116.53" font-family="Times,serif" font-size="9.00">67656</text>
</g>
<!-- 67177 -->
<g id="node24" class="node">
<title>67177</title>
<ellipse fill="white" stroke="black" cx="291.58" cy="-301.04" rx="27.65" ry="27.65"/>
<text text-anchor="middle" x="291.58" y="-298.84" font-family="Times,serif" font-size="9.00">67177</text>
</g>
<!-- 67250 -->
<g id="node28" class="node">
<title>67250</title>
<ellipse fill="white" stroke="black" cx="291.58" cy="-209.89" rx="27.65" ry="27.65"/>
<text text-anchor="middle" x="291.58" y="-207.69" font-family="Times,serif" font-size="9.00">67250</text>
</g>
<!-- 67177&#45;&gt;67250 -->
<g id="edge14" class="edge">
<title>67177&#45;&gt;67250</title>
<path fill="none" stroke="green" stroke-width="0.53" d="M291.58,-273.29C291.58,-265.27 291.58,-256.32 291.58,-247.77"/>
<polygon fill="green" stroke="green" stroke-width="0.53" points="295.08,-247.62 291.58,-237.62 288.08,-247.62 295.08,-247.62"/>
</g>
<!-- 67401 -->
<g id="node25" class="node">
<title>67401</title>
<ellipse fill="white" stroke="black" cx="100.58" cy="-209.89" rx="27.65" ry="27.65"/>
<text text-anchor="middle" x="100.58" y="-207.69" font-family="Times,serif" font-size="9.00">67401</text>
</g>
<!-- 67401&#45;&gt;66177 -->
<g id="edge4" class="edge">
<title>67401&#45;&gt;66177</title>
<path fill="none" stroke="green" stroke-width="0.16" d="M119.89,-189.54C132.48,-176.92 149.09,-160.28 162.94,-146.42"/>
<polygon fill="green" stroke="green" stroke-width="0.16" points="165.72,-148.59 170.3,-139.04 160.76,-143.64 165.72,-148.59"/>
</g>
<!-- 67277&#45;&gt;67527 -->
<g id="edge6" class="edge">
<title>67277&#45;&gt;67527</title>
<path fill="none" stroke="green" stroke-width="0.21" d="M391.58,-90.98C391.58,-82.96 391.58,-74.02 391.58,-65.46"/>
<polygon fill="green" stroke="green" stroke-width="0.21" points="395.08,-65.31 391.58,-55.31 388.08,-65.31 395.08,-65.31"/>
</g>
<!-- 65838 -->
<g id="node27" class="node">
<title>65838</title>
<ellipse fill="white" stroke="black" cx="1094.58" cy="-301.04" rx="27.65" ry="27.65"/>
<text text-anchor="middle" x="1094.58" y="-298.84" font-family="Times,serif" font-size="9.00">65838</text>
</g>
<!-- 67250&#45;&gt;66177 -->
<g id="edge3" class="edge">
<title>67250&#45;&gt;66177</title>
<path fill="none" stroke="green" stroke-width="0.28" d="M270.94,-190.84C255.63,-177.46 234.58,-159.07 217.73,-144.34"/>
<polygon fill="green" stroke="green" stroke-width="0.28" points="219.67,-141.39 209.84,-137.44 215.07,-146.66 219.67,-141.39"/>
</g>
<!-- 67250&#45;&gt;67656 -->
<g id="edge7" class="edge">
<title>67250&#45;&gt;67656</title>
<path fill="none" stroke="green" stroke-width="0.37" d="M291.58,-182.14C291.58,-174.11 291.58,-165.17 291.58,-156.62"/>
<polygon fill="green" stroke="green" stroke-width="0.37" points="295.08,-156.46 291.58,-146.46 288.08,-156.46 295.08,-156.46"/>
</g>
<!-- 67698&#45;&gt;66177 -->
<g id="edge8" class="edge">
<title>67698&#45;&gt;66177</title>
<path fill="none" stroke="red" stroke-width="0.52" d="M210.19,-183.1C207.31,-174.24 204.03,-164.18 200.96,-154.72"/>
<polygon fill="red" stroke="red" stroke-width="0.52" points="204.27,-153.58 197.85,-145.15 197.61,-155.75 204.27,-153.58"/>
</g>
<!-- 67899&#45;&gt;67277 -->
<g id="edge13" class="edge">
<title>67899&#45;&gt;67277</title>
<path fill="none" stroke="green" stroke-width="0.22" d="M433.16,-185.93C426.56,-175.42 418.63,-162.81 411.48,-151.42"/>
<polygon fill="green" stroke="green" stroke-width="0.22" points="414.23,-149.22 405.95,-142.61 408.3,-152.94 414.23,-149.22"/>
</g>
</g>
</svg>
