<?xml version="1.0" encoding="utf-8" standalone="no"?>
<!DOCTYPE svg PUBLIC "-//W3C//DTD SVG 1.1//EN"
  "http://www.w3.org/Graphics/SVG/1.1/DTD/svg11.dtd">
<svg height="345.6pt" version="1.1" viewBox="0 0 460.8 345.6" width="460.8pt" xmlns="http://www.w3.org/2000/svg" xmlns:xlink="http://www.w3.org/1999/xlink">
 <metadata>
  <rdf:RDF xmlns:cc="http://creativecommons.org/ns#" xmlns:dc="http://purl.org/dc/elements/1.1/" xmlns:rdf="http://www.w3.org/1999/02/22-rdf-syntax-ns#">
   <cc:Work>
    <dc:type rdf:resource="http://purl.org/dc/dcmitype/StillImage"/>
    <dc:date>2021-07-13T06:36:02.910748</dc:date>
    <dc:format>image/svg+xml</dc:format>
    <dc:creator>
     <cc:Agent>
      <dc:title>Matplotlib v3.4.2, https://matplotlib.org/</dc:title>
     </cc:Agent>
    </dc:creator>
   </cc:Work>
  </rdf:RDF>
 </metadata>
 <defs>
  <style type="text/css">*{stroke-linecap:butt;stroke-linejoin:round;}</style>
 </defs>
 <g id="figure_1">
  <g id="patch_1">
   <path d="M 0 345.6 
L 460.8 345.6 
L 460.8 0 
L 0 0 
z
" style="fill:#ffffff;"/>
  </g>
  <g id="axes_1">
   <g id="patch_2">
    <path d="M 57.6 307.584 
L 414.72 307.584 
L 414.72 41.472 
L 57.6 41.472 
z
" style="fill:#ffffff;"/>
   </g>
   <g id="matplotlib.axis_1">
    <g id="xtick_1">
     <g id="line2d_1">
      <path clip-path="url(#p23f2942c28)" d="M 73.832727 307.584 
L 73.832727 41.472 
" style="fill:none;stroke:#b0b0b0;stroke-linecap:square;stroke-width:0.8;"/>
     </g>
     <g id="line2d_2">
      <defs>
       <path d="M 0 0 
L 0 3.5 
" id="ma9d85b5531" style="stroke:#000000;stroke-width:0.8;"/>
      </defs>
      <g>
       <use style="stroke:#000000;stroke-width:0.8;" x="73.832727" xlink:href="#ma9d85b5531" y="307.584"/>
      </g>
     </g>
     <g id="text_1">
      <!-- 0 -->
      <g transform="translate(70.651477 322.182437)scale(0.1 -0.1)">
       <defs>
        <path d="M 2034 4250 
Q 1547 4250 1301 3770 
Q 1056 3291 1056 2328 
Q 1056 1369 1301 889 
Q 1547 409 2034 409 
Q 2525 409 2770 889 
Q 3016 1369 3016 2328 
Q 3016 3291 2770 3770 
Q 2525 4250 2034 4250 
z
M 2034 4750 
Q 2819 4750 3233 4129 
Q 3647 3509 3647 2328 
Q 3647 1150 3233 529 
Q 2819 -91 2034 -91 
Q 1250 -91 836 529 
Q 422 1150 422 2328 
Q 422 3509 836 4129 
Q 1250 4750 2034 4750 
z
" id="DejaVuSans-30" transform="scale(0.015625)"/>
       </defs>
       <use xlink:href="#DejaVuSans-30"/>
      </g>
     </g>
    </g>
    <g id="xtick_2">
     <g id="line2d_3">
      <path clip-path="url(#p23f2942c28)" d="M 139.024403 307.584 
L 139.024403 41.472 
" style="fill:none;stroke:#b0b0b0;stroke-linecap:square;stroke-width:0.8;"/>
     </g>
     <g id="line2d_4">
      <g>
       <use style="stroke:#000000;stroke-width:0.8;" x="139.024403" xlink:href="#ma9d85b5531" y="307.584"/>
      </g>
     </g>
     <g id="text_2">
      <!-- 50 -->
      <g transform="translate(132.661903 322.182437)scale(0.1 -0.1)">
       <defs>
        <path d="M 691 4666 
L 3169 4666 
L 3169 4134 
L 1269 4134 
L 1269 2991 
Q 1406 3038 1543 3061 
Q 1681 3084 1819 3084 
Q 2600 3084 3056 2656 
Q 3513 2228 3513 1497 
Q 3513 744 3044 326 
Q 2575 -91 1722 -91 
Q 1428 -91 1123 -41 
Q 819 9 494 109 
L 494 744 
Q 775 591 1075 516 
Q 1375 441 1709 441 
Q 2250 441 2565 725 
Q 2881 1009 2881 1497 
Q 2881 1984 2565 2268 
Q 2250 2553 1709 2553 
Q 1456 2553 1204 2497 
Q 953 2441 691 2322 
L 691 4666 
z
" id="DejaVuSans-35" transform="scale(0.015625)"/>
       </defs>
       <use xlink:href="#DejaVuSans-35"/>
       <use x="63.623047" xlink:href="#DejaVuSans-30"/>
      </g>
     </g>
    </g>
    <g id="xtick_3">
     <g id="line2d_5">
      <path clip-path="url(#p23f2942c28)" d="M 204.216079 307.584 
L 204.216079 41.472 
" style="fill:none;stroke:#b0b0b0;stroke-linecap:square;stroke-width:0.8;"/>
     </g>
     <g id="line2d_6">
      <g>
       <use style="stroke:#000000;stroke-width:0.8;" x="204.216079" xlink:href="#ma9d85b5531" y="307.584"/>
      </g>
     </g>
     <g id="text_3">
      <!-- 100 -->
      <g transform="translate(194.672329 322.182437)scale(0.1 -0.1)">
       <defs>
        <path d="M 794 531 
L 1825 531 
L 1825 4091 
L 703 3866 
L 703 4441 
L 1819 4666 
L 2450 4666 
L 2450 531 
L 3481 531 
L 3481 0 
L 794 0 
L 794 531 
z
" id="DejaVuSans-31" transform="scale(0.015625)"/>
       </defs>
       <use xlink:href="#DejaVuSans-31"/>
       <use x="63.623047" xlink:href="#DejaVuSans-30"/>
       <use x="127.246094" xlink:href="#DejaVuSans-30"/>
      </g>
     </g>
    </g>
    <g id="xtick_4">
     <g id="line2d_7">
      <path clip-path="url(#p23f2942c28)" d="M 269.407755 307.584 
L 269.407755 41.472 
" style="fill:none;stroke:#b0b0b0;stroke-linecap:square;stroke-width:0.8;"/>
     </g>
     <g id="line2d_8">
      <g>
       <use style="stroke:#000000;stroke-width:0.8;" x="269.407755" xlink:href="#ma9d85b5531" y="307.584"/>
      </g>
     </g>
     <g id="text_4">
      <!-- 150 -->
      <g transform="translate(259.864005 322.182437)scale(0.1 -0.1)">
       <use xlink:href="#DejaVuSans-31"/>
       <use x="63.623047" xlink:href="#DejaVuSans-35"/>
       <use x="127.246094" xlink:href="#DejaVuSans-30"/>
      </g>
     </g>
    </g>
    <g id="xtick_5">
     <g id="line2d_9">
      <path clip-path="url(#p23f2942c28)" d="M 334.59943 307.584 
L 334.59943 41.472 
" style="fill:none;stroke:#b0b0b0;stroke-linecap:square;stroke-width:0.8;"/>
     </g>
     <g id="line2d_10">
      <g>
       <use style="stroke:#000000;stroke-width:0.8;" x="334.59943" xlink:href="#ma9d85b5531" y="307.584"/>
      </g>
     </g>
     <g id="text_5">
      <!-- 200 -->
      <g transform="translate(325.05568 322.182437)scale(0.1 -0.1)">
       <defs>
        <path d="M 1228 531 
L 3431 531 
L 3431 0 
L 469 0 
L 469 531 
Q 828 903 1448 1529 
Q 2069 2156 2228 2338 
Q 2531 2678 2651 2914 
Q 2772 3150 2772 3378 
Q 2772 3750 2511 3984 
Q 2250 4219 1831 4219 
Q 1534 4219 1204 4116 
Q 875 4013 500 3803 
L 500 4441 
Q 881 4594 1212 4672 
Q 1544 4750 1819 4750 
Q 2544 4750 2975 4387 
Q 3406 4025 3406 3419 
Q 3406 3131 3298 2873 
Q 3191 2616 2906 2266 
Q 2828 2175 2409 1742 
Q 1991 1309 1228 531 
z
" id="DejaVuSans-32" transform="scale(0.015625)"/>
       </defs>
       <use xlink:href="#DejaVuSans-32"/>
       <use x="63.623047" xlink:href="#DejaVuSans-30"/>
       <use x="127.246094" xlink:href="#DejaVuSans-30"/>
      </g>
     </g>
    </g>
    <g id="xtick_6">
     <g id="line2d_11">
      <path clip-path="url(#p23f2942c28)" d="M 399.791106 307.584 
L 399.791106 41.472 
" style="fill:none;stroke:#b0b0b0;stroke-linecap:square;stroke-width:0.8;"/>
     </g>
     <g id="line2d_12">
      <g>
       <use style="stroke:#000000;stroke-width:0.8;" x="399.791106" xlink:href="#ma9d85b5531" y="307.584"/>
      </g>
     </g>
     <g id="text_6">
      <!-- 250 -->
      <g transform="translate(390.247356 322.182437)scale(0.1 -0.1)">
       <use xlink:href="#DejaVuSans-32"/>
       <use x="63.623047" xlink:href="#DejaVuSans-35"/>
       <use x="127.246094" xlink:href="#DejaVuSans-30"/>
      </g>
     </g>
    </g>
    <g id="text_7">
     <!-- Generations -->
     <g transform="translate(205.662344 335.860562)scale(0.1 -0.1)">
      <defs>
       <path d="M 3809 666 
L 3809 1919 
L 2778 1919 
L 2778 2438 
L 4434 2438 
L 4434 434 
Q 4069 175 3628 42 
Q 3188 -91 2688 -91 
Q 1594 -91 976 548 
Q 359 1188 359 2328 
Q 359 3472 976 4111 
Q 1594 4750 2688 4750 
Q 3144 4750 3555 4637 
Q 3966 4525 4313 4306 
L 4313 3634 
Q 3963 3931 3569 4081 
Q 3175 4231 2741 4231 
Q 1884 4231 1454 3753 
Q 1025 3275 1025 2328 
Q 1025 1384 1454 906 
Q 1884 428 2741 428 
Q 3075 428 3337 486 
Q 3600 544 3809 666 
z
" id="DejaVuSans-47" transform="scale(0.015625)"/>
       <path d="M 3597 1894 
L 3597 1613 
L 953 1613 
Q 991 1019 1311 708 
Q 1631 397 2203 397 
Q 2534 397 2845 478 
Q 3156 559 3463 722 
L 3463 178 
Q 3153 47 2828 -22 
Q 2503 -91 2169 -91 
Q 1331 -91 842 396 
Q 353 884 353 1716 
Q 353 2575 817 3079 
Q 1281 3584 2069 3584 
Q 2775 3584 3186 3129 
Q 3597 2675 3597 1894 
z
M 3022 2063 
Q 3016 2534 2758 2815 
Q 2500 3097 2075 3097 
Q 1594 3097 1305 2825 
Q 1016 2553 972 2059 
L 3022 2063 
z
" id="DejaVuSans-65" transform="scale(0.015625)"/>
       <path d="M 3513 2113 
L 3513 0 
L 2938 0 
L 2938 2094 
Q 2938 2591 2744 2837 
Q 2550 3084 2163 3084 
Q 1697 3084 1428 2787 
Q 1159 2491 1159 1978 
L 1159 0 
L 581 0 
L 581 3500 
L 1159 3500 
L 1159 2956 
Q 1366 3272 1645 3428 
Q 1925 3584 2291 3584 
Q 2894 3584 3203 3211 
Q 3513 2838 3513 2113 
z
" id="DejaVuSans-6e" transform="scale(0.015625)"/>
       <path d="M 2631 2963 
Q 2534 3019 2420 3045 
Q 2306 3072 2169 3072 
Q 1681 3072 1420 2755 
Q 1159 2438 1159 1844 
L 1159 0 
L 581 0 
L 581 3500 
L 1159 3500 
L 1159 2956 
Q 1341 3275 1631 3429 
Q 1922 3584 2338 3584 
Q 2397 3584 2469 3576 
Q 2541 3569 2628 3553 
L 2631 2963 
z
" id="DejaVuSans-72" transform="scale(0.015625)"/>
       <path d="M 2194 1759 
Q 1497 1759 1228 1600 
Q 959 1441 959 1056 
Q 959 750 1161 570 
Q 1363 391 1709 391 
Q 2188 391 2477 730 
Q 2766 1069 2766 1631 
L 2766 1759 
L 2194 1759 
z
M 3341 1997 
L 3341 0 
L 2766 0 
L 2766 531 
Q 2569 213 2275 61 
Q 1981 -91 1556 -91 
Q 1019 -91 701 211 
Q 384 513 384 1019 
Q 384 1609 779 1909 
Q 1175 2209 1959 2209 
L 2766 2209 
L 2766 2266 
Q 2766 2663 2505 2880 
Q 2244 3097 1772 3097 
Q 1472 3097 1187 3025 
Q 903 2953 641 2809 
L 641 3341 
Q 956 3463 1253 3523 
Q 1550 3584 1831 3584 
Q 2591 3584 2966 3190 
Q 3341 2797 3341 1997 
z
" id="DejaVuSans-61" transform="scale(0.015625)"/>
       <path d="M 1172 4494 
L 1172 3500 
L 2356 3500 
L 2356 3053 
L 1172 3053 
L 1172 1153 
Q 1172 725 1289 603 
Q 1406 481 1766 481 
L 2356 481 
L 2356 0 
L 1766 0 
Q 1100 0 847 248 
Q 594 497 594 1153 
L 594 3053 
L 172 3053 
L 172 3500 
L 594 3500 
L 594 4494 
L 1172 4494 
z
" id="DejaVuSans-74" transform="scale(0.015625)"/>
       <path d="M 603 3500 
L 1178 3500 
L 1178 0 
L 603 0 
L 603 3500 
z
M 603 4863 
L 1178 4863 
L 1178 4134 
L 603 4134 
L 603 4863 
z
" id="DejaVuSans-69" transform="scale(0.015625)"/>
       <path d="M 1959 3097 
Q 1497 3097 1228 2736 
Q 959 2375 959 1747 
Q 959 1119 1226 758 
Q 1494 397 1959 397 
Q 2419 397 2687 759 
Q 2956 1122 2956 1747 
Q 2956 2369 2687 2733 
Q 2419 3097 1959 3097 
z
M 1959 3584 
Q 2709 3584 3137 3096 
Q 3566 2609 3566 1747 
Q 3566 888 3137 398 
Q 2709 -91 1959 -91 
Q 1206 -91 779 398 
Q 353 888 353 1747 
Q 353 2609 779 3096 
Q 1206 3584 1959 3584 
z
" id="DejaVuSans-6f" transform="scale(0.015625)"/>
       <path d="M 2834 3397 
L 2834 2853 
Q 2591 2978 2328 3040 
Q 2066 3103 1784 3103 
Q 1356 3103 1142 2972 
Q 928 2841 928 2578 
Q 928 2378 1081 2264 
Q 1234 2150 1697 2047 
L 1894 2003 
Q 2506 1872 2764 1633 
Q 3022 1394 3022 966 
Q 3022 478 2636 193 
Q 2250 -91 1575 -91 
Q 1294 -91 989 -36 
Q 684 19 347 128 
L 347 722 
Q 666 556 975 473 
Q 1284 391 1588 391 
Q 1994 391 2212 530 
Q 2431 669 2431 922 
Q 2431 1156 2273 1281 
Q 2116 1406 1581 1522 
L 1381 1569 
Q 847 1681 609 1914 
Q 372 2147 372 2553 
Q 372 3047 722 3315 
Q 1072 3584 1716 3584 
Q 2034 3584 2315 3537 
Q 2597 3491 2834 3397 
z
" id="DejaVuSans-73" transform="scale(0.015625)"/>
      </defs>
      <use xlink:href="#DejaVuSans-47"/>
      <use x="77.490234" xlink:href="#DejaVuSans-65"/>
      <use x="139.013672" xlink:href="#DejaVuSans-6e"/>
      <use x="202.392578" xlink:href="#DejaVuSans-65"/>
      <use x="263.916016" xlink:href="#DejaVuSans-72"/>
      <use x="305.029297" xlink:href="#DejaVuSans-61"/>
      <use x="366.308594" xlink:href="#DejaVuSans-74"/>
      <use x="405.517578" xlink:href="#DejaVuSans-69"/>
      <use x="433.300781" xlink:href="#DejaVuSans-6f"/>
      <use x="494.482422" xlink:href="#DejaVuSans-6e"/>
      <use x="557.861328" xlink:href="#DejaVuSans-73"/>
     </g>
    </g>
   </g>
   <g id="matplotlib.axis_2">
    <g id="ytick_1">
     <g id="line2d_13">
      <path clip-path="url(#p23f2942c28)" d="M 57.6 289.815141 
L 414.72 289.815141 
" style="fill:none;stroke:#b0b0b0;stroke-linecap:square;stroke-width:0.8;"/>
     </g>
     <g id="line2d_14">
      <defs>
       <path d="M 0 0 
L -3.5 0 
" id="m31f2409a9a" style="stroke:#000000;stroke-width:0.8;"/>
      </defs>
      <g>
       <use style="stroke:#000000;stroke-width:0.8;" x="57.6" xlink:href="#m31f2409a9a" y="289.815141"/>
      </g>
     </g>
     <g id="text_8">
      <!-- 0 -->
      <g transform="translate(44.2375 293.614359)scale(0.1 -0.1)">
       <use xlink:href="#DejaVuSans-30"/>
      </g>
     </g>
    </g>
    <g id="ytick_2">
     <g id="line2d_15">
      <path clip-path="url(#p23f2942c28)" d="M 57.6 256.123307 
L 414.72 256.123307 
" style="fill:none;stroke:#b0b0b0;stroke-linecap:square;stroke-width:0.8;"/>
     </g>
     <g id="line2d_16">
      <g>
       <use style="stroke:#000000;stroke-width:0.8;" x="57.6" xlink:href="#m31f2409a9a" y="256.123307"/>
      </g>
     </g>
     <g id="text_9">
      <!-- 2500 -->
      <g transform="translate(25.15 259.922525)scale(0.1 -0.1)">
       <use xlink:href="#DejaVuSans-32"/>
       <use x="63.623047" xlink:href="#DejaVuSans-35"/>
       <use x="127.246094" xlink:href="#DejaVuSans-30"/>
       <use x="190.869141" xlink:href="#DejaVuSans-30"/>
      </g>
     </g>
    </g>
    <g id="ytick_3">
     <g id="line2d_17">
      <path clip-path="url(#p23f2942c28)" d="M 57.6 222.431472 
L 414.72 222.431472 
" style="fill:none;stroke:#b0b0b0;stroke-linecap:square;stroke-width:0.8;"/>
     </g>
     <g id="line2d_18">
      <g>
       <use style="stroke:#000000;stroke-width:0.8;" x="57.6" xlink:href="#m31f2409a9a" y="222.431472"/>
      </g>
     </g>
     <g id="text_10">
      <!-- 5000 -->
      <g transform="translate(25.15 226.230691)scale(0.1 -0.1)">
       <use xlink:href="#DejaVuSans-35"/>
       <use x="63.623047" xlink:href="#DejaVuSans-30"/>
       <use x="127.246094" xlink:href="#DejaVuSans-30"/>
       <use x="190.869141" xlink:href="#DejaVuSans-30"/>
      </g>
     </g>
    </g>
    <g id="ytick_4">
     <g id="line2d_19">
      <path clip-path="url(#p23f2942c28)" d="M 57.6 188.739638 
L 414.72 188.739638 
" style="fill:none;stroke:#b0b0b0;stroke-linecap:square;stroke-width:0.8;"/>
     </g>
     <g id="line2d_20">
      <g>
       <use style="stroke:#000000;stroke-width:0.8;" x="57.6" xlink:href="#m31f2409a9a" y="188.739638"/>
      </g>
     </g>
     <g id="text_11">
      <!-- 7500 -->
      <g transform="translate(25.15 192.538857)scale(0.1 -0.1)">
       <defs>
        <path d="M 525 4666 
L 3525 4666 
L 3525 4397 
L 1831 0 
L 1172 0 
L 2766 4134 
L 525 4134 
L 525 4666 
z
" id="DejaVuSans-37" transform="scale(0.015625)"/>
       </defs>
       <use xlink:href="#DejaVuSans-37"/>
       <use x="63.623047" xlink:href="#DejaVuSans-35"/>
       <use x="127.246094" xlink:href="#DejaVuSans-30"/>
       <use x="190.869141" xlink:href="#DejaVuSans-30"/>
      </g>
     </g>
    </g>
    <g id="ytick_5">
     <g id="line2d_21">
      <path clip-path="url(#p23f2942c28)" d="M 57.6 155.047804 
L 414.72 155.047804 
" style="fill:none;stroke:#b0b0b0;stroke-linecap:square;stroke-width:0.8;"/>
     </g>
     <g id="line2d_22">
      <g>
       <use style="stroke:#000000;stroke-width:0.8;" x="57.6" xlink:href="#m31f2409a9a" y="155.047804"/>
      </g>
     </g>
     <g id="text_12">
      <!-- 10000 -->
      <g transform="translate(18.7875 158.847023)scale(0.1 -0.1)">
       <use xlink:href="#DejaVuSans-31"/>
       <use x="63.623047" xlink:href="#DejaVuSans-30"/>
       <use x="127.246094" xlink:href="#DejaVuSans-30"/>
       <use x="190.869141" xlink:href="#DejaVuSans-30"/>
       <use x="254.492188" xlink:href="#DejaVuSans-30"/>
      </g>
     </g>
    </g>
    <g id="ytick_6">
     <g id="line2d_23">
      <path clip-path="url(#p23f2942c28)" d="M 57.6 121.35597 
L 414.72 121.35597 
" style="fill:none;stroke:#b0b0b0;stroke-linecap:square;stroke-width:0.8;"/>
     </g>
     <g id="line2d_24">
      <g>
       <use style="stroke:#000000;stroke-width:0.8;" x="57.6" xlink:href="#m31f2409a9a" y="121.35597"/>
      </g>
     </g>
     <g id="text_13">
      <!-- 12500 -->
      <g transform="translate(18.7875 125.155189)scale(0.1 -0.1)">
       <use xlink:href="#DejaVuSans-31"/>
       <use x="63.623047" xlink:href="#DejaVuSans-32"/>
       <use x="127.246094" xlink:href="#DejaVuSans-35"/>
       <use x="190.869141" xlink:href="#DejaVuSans-30"/>
       <use x="254.492188" xlink:href="#DejaVuSans-30"/>
      </g>
     </g>
    </g>
    <g id="ytick_7">
     <g id="line2d_25">
      <path clip-path="url(#p23f2942c28)" d="M 57.6 87.664136 
L 414.72 87.664136 
" style="fill:none;stroke:#b0b0b0;stroke-linecap:square;stroke-width:0.8;"/>
     </g>
     <g id="line2d_26">
      <g>
       <use style="stroke:#000000;stroke-width:0.8;" x="57.6" xlink:href="#m31f2409a9a" y="87.664136"/>
      </g>
     </g>
     <g id="text_14">
      <!-- 15000 -->
      <g transform="translate(18.7875 91.463355)scale(0.1 -0.1)">
       <use xlink:href="#DejaVuSans-31"/>
       <use x="63.623047" xlink:href="#DejaVuSans-35"/>
       <use x="127.246094" xlink:href="#DejaVuSans-30"/>
       <use x="190.869141" xlink:href="#DejaVuSans-30"/>
       <use x="254.492188" xlink:href="#DejaVuSans-30"/>
      </g>
     </g>
    </g>
    <g id="ytick_8">
     <g id="line2d_27">
      <path clip-path="url(#p23f2942c28)" d="M 57.6 53.972302 
L 414.72 53.972302 
" style="fill:none;stroke:#b0b0b0;stroke-linecap:square;stroke-width:0.8;"/>
     </g>
     <g id="line2d_28">
      <g>
       <use style="stroke:#000000;stroke-width:0.8;" x="57.6" xlink:href="#m31f2409a9a" y="53.972302"/>
      </g>
     </g>
     <g id="text_15">
      <!-- 17500 -->
      <g transform="translate(18.7875 57.771521)scale(0.1 -0.1)">
       <use xlink:href="#DejaVuSans-31"/>
       <use x="63.623047" xlink:href="#DejaVuSans-37"/>
       <use x="127.246094" xlink:href="#DejaVuSans-35"/>
       <use x="190.869141" xlink:href="#DejaVuSans-30"/>
       <use x="254.492188" xlink:href="#DejaVuSans-30"/>
      </g>
     </g>
    </g>
    <g id="text_16">
     <!-- Fitness -->
     <g transform="translate(12.707812 191.845187)rotate(-90)scale(0.1 -0.1)">
      <defs>
       <path d="M 628 4666 
L 3309 4666 
L 3309 4134 
L 1259 4134 
L 1259 2759 
L 3109 2759 
L 3109 2228 
L 1259 2228 
L 1259 0 
L 628 0 
L 628 4666 
z
" id="DejaVuSans-46" transform="scale(0.015625)"/>
      </defs>
      <use xlink:href="#DejaVuSans-46"/>
      <use x="50.269531" xlink:href="#DejaVuSans-69"/>
      <use x="78.052734" xlink:href="#DejaVuSans-74"/>
      <use x="117.261719" xlink:href="#DejaVuSans-6e"/>
      <use x="180.640625" xlink:href="#DejaVuSans-65"/>
      <use x="242.164062" xlink:href="#DejaVuSans-73"/>
      <use x="294.263672" xlink:href="#DejaVuSans-73"/>
     </g>
    </g>
   </g>
   <g id="line2d_29">
    <path clip-path="url(#p23f2942c28)" d="M 73.832727 288.235764 
L 80.351895 287.786218 
L 84.263395 287.768254 
L 92.086396 287.654229 
L 93.39023 287.489249 
L 98.605564 287.673171 
L 101.213231 287.563016 
L 103.820898 287.543665 
L 106.428565 287.619973 
L 107.732399 287.666768 
L 109.036232 287.467049 
L 118.163067 287.383968 
L 119.4669 287.197381 
L 120.770734 287.18161 
L 123.378401 287.505063 
L 124.682234 287.225765 
L 125.986068 287.423213 
L 128.593735 287.33332 
L 131.201402 287.224634 
L 132.505235 286.925258 
L 133.809069 287.137239 
L 135.112903 287.017656 
L 136.416736 287.047197 
L 137.72057 287.279265 
L 139.024403 286.963368 
L 142.935904 287.16597 
L 146.847404 286.921969 
L 148.151238 287.04518 
L 149.455071 286.851992 
L 154.670405 286.983679 
L 155.974239 286.769495 
L 158.581906 286.968397 
L 159.885739 286.766318 
L 162.493406 286.75082 
L 163.79724 286.870638 
L 167.70874 286.292253 
L 169.012574 286.60171 
L 170.316407 286.57697 
L 171.620241 286.920815 
L 172.924074 286.546889 
L 174.227908 286.808578 
L 175.531742 286.430266 
L 178.139409 286.657336 
L 179.443242 286.503248 
L 180.747076 286.62539 
L 182.050909 286.611388 
L 183.354743 286.822999 
L 185.96241 286.673677 
L 188.570077 286.529874 
L 189.87391 287.071539 
L 191.177744 286.497192 
L 192.481577 286.854404 
L 193.785411 286.602511 
L 195.089244 286.84132 
L 204.216079 286.744798 
L 205.519912 286.377222 
L 206.823746 286.527567 
L 208.127579 286.436235 
L 209.431413 286.195413 
L 210.735246 286.539465 
L 212.03908 286.574371 
L 213.342913 286.387129 
L 215.950581 286.35316 
L 217.254414 286.234565 
L 218.558248 286.286319 
L 221.165915 285.936193 
L 222.469748 286.227634 
L 225.077415 286.247272 
L 226.381249 285.998433 
L 227.685082 286.350465 
L 228.988916 286.029719 
L 230.292749 285.87618 
L 231.596583 286.138303 
L 232.900416 285.988924 
L 235.508083 286.125041 
L 236.811917 286.5198 
L 238.11575 286.553925 
L 239.419584 286.208432 
L 240.723417 286.545493 
L 242.027251 286.322083 
L 243.331084 286.224265 
L 244.634918 286.69133 
L 245.938751 286.171802 
L 247.242585 286.601613 
L 248.546418 286.645509 
L 249.850252 286.293503 
L 251.154085 286.159505 
L 253.761752 286.546216 
L 255.065586 286.30696 
L 256.369419 286.219067 
L 257.673253 286.317342 
L 258.977087 286.131052 
L 260.28092 286.460857 
L 261.584754 286.326881 
L 262.888587 286.500345 
L 264.192421 286.13198 
L 265.496254 286.502945 
L 266.800088 286.491297 
L 268.103921 286.305222 
L 269.407755 286.257668 
L 270.711588 286.406971 
L 272.015422 286.283025 
L 274.623089 286.262289 
L 275.926922 286.496206 
L 277.230756 286.236587 
L 281.142256 286.435272 
L 282.44609 286.329699 
L 285.053757 286.422662 
L 286.35759 286.161502 
L 287.661424 286.107884 
L 288.965257 285.897454 
L 292.876758 285.886702 
L 294.180591 286.108558 
L 295.484425 285.84528 
L 296.788258 286.028467 
L 298.092092 285.927488 
L 299.395926 286.178444 
L 300.699759 286.177578 
L 302.003593 285.884555 
L 303.307426 285.851424 
L 304.61126 286.04926 
L 305.915093 285.98101 
L 307.218927 286.124034 
L 308.52276 285.887374 
L 312.434261 286.232271 
L 313.738094 285.990132 
L 315.041928 285.899764 
L 316.345761 286.12858 
L 317.649595 285.945062 
L 318.953428 286.112504 
L 320.257262 285.87541 
L 321.561095 285.955088 
L 324.168762 285.939328 
L 325.472596 285.6221 
L 326.776429 285.729765 
L 329.384096 285.651195 
L 330.68793 285.873629 
L 333.295597 285.683818 
L 334.59943 285.843734 
L 335.903264 285.569585 
L 337.207097 285.933226 
L 338.510931 286.056651 
L 339.814765 285.755875 
L 342.422432 285.743091 
L 343.726265 286.067935 
L 345.030099 285.779042 
L 346.333932 285.959447 
L 347.637766 285.959543 
L 348.941599 285.376591 
L 350.245433 285.262164 
L 351.549266 286.17488 
L 352.8531 285.690779 
L 354.156933 285.939039 
L 355.460767 285.746864 
L 358.068434 286.058405 
L 363.283768 286.020092 
L 364.587601 286.26739 
L 365.891435 285.839024 
L 367.195268 285.708395 
L 368.499102 285.844791 
L 369.802935 285.826239 
L 371.106769 286.244481 
L 372.410602 285.849433 
L 375.018269 285.624069 
L 376.322103 285.650156 
L 377.625936 285.127506 
L 378.92977 285.378873 
L 380.233604 285.342441 
L 381.537437 285.565253 
L 382.841271 285.39829 
L 384.145104 285.559862 
L 385.448938 285.299471 
L 386.752771 285.26496 
L 388.056605 284.884372 
L 389.360438 284.935215 
L 390.664272 285.399631 
L 391.968105 285.70079 
L 393.271939 285.18415 
L 395.879606 285.133181 
L 397.183439 285.504032 
L 398.487273 285.247972 
L 398.487273 285.247972 
" style="fill:none;stroke:#0000ff;stroke-linecap:square;stroke-width:1.5;"/>
   </g>
   <g id="line2d_30">
    <path clip-path="url(#p23f2942c28)" d="M 73.832727 289.452275 
L 76.440394 289.372358 
L 77.744228 289.442572 
L 79.048061 289.325771 
L 80.351895 289.535853 
L 82.959562 289.44179 
L 85.567229 289.510434 
L 86.871062 289.528859 
L 88.174896 289.432803 
L 90.782563 289.710952 
L 93.39023 289.420471 
L 94.694064 289.611027 
L 95.997897 289.443093 
L 97.301731 289.723913 
L 98.605564 289.475311 
L 99.909398 289.908087 
L 101.213231 289.595555 
L 103.820898 289.501924 
L 106.428565 289.722181 
L 107.732399 289.725979 
L 109.036232 289.535592 
L 110.340066 289.513359 
L 111.643899 289.749439 
L 112.947733 289.758863 
L 114.251566 289.642187 
L 115.5554 289.810401 
L 116.859233 289.5379 
L 118.163067 289.605958 
L 119.4669 293.022785 
L 120.770734 293.038482 
L 122.074567 289.62522 
L 123.378401 289.466292 
L 124.682234 289.914872 
L 125.986068 289.565812 
L 128.593735 289.745265 
L 129.897568 289.942409 
L 131.201402 289.635313 
L 132.505235 290.411248 
L 133.809069 289.808282 
L 135.112903 290.590401 
L 136.416736 289.671437 
L 137.72057 289.959462 
L 139.024403 289.563956 
L 140.328237 289.505892 
L 141.63207 289.696309 
L 144.239737 289.542184 
L 146.847404 290.330695 
L 148.151238 289.636375 
L 149.455071 290.035811 
L 150.758905 289.817564 
L 152.062738 289.771239 
L 153.366572 289.887511 
L 154.670405 289.714726 
L 155.974239 289.700462 
L 157.278072 290.476126 
L 158.581906 289.640262 
L 161.189573 289.474459 
L 162.493406 289.589144 
L 163.79724 289.54119 
L 165.101073 289.689468 
L 166.404907 291.104448 
L 167.70874 290.036586 
L 169.012574 289.486057 
L 170.316407 289.767509 
L 171.620241 289.654893 
L 172.924074 291.413663 
L 174.227908 289.670854 
L 175.531742 292.323781 
L 176.835575 289.705663 
L 178.139409 289.560241 
L 179.443242 289.601309 
L 180.747076 289.905806 
L 183.354743 289.744217 
L 184.658576 289.654419 
L 185.96241 289.968158 
L 187.266243 289.880611 
L 188.570077 292.060269 
L 189.87391 289.759602 
L 191.177744 289.608654 
L 192.481577 289.796931 
L 196.393078 289.603815 
L 197.696911 289.843771 
L 199.000745 290.226128 
L 200.304578 290.106812 
L 201.608412 290.371605 
L 202.912245 290.266615 
L 204.216079 289.876057 
L 205.519912 291.705196 
L 206.823746 290.614549 
L 208.127579 290.339539 
L 209.431413 294.269229 
L 210.735246 291.187238 
L 212.03908 291.420288 
L 213.342913 290.762567 
L 214.646747 289.900637 
L 215.950581 289.584041 
L 217.254414 290.162191 
L 218.558248 291.483475 
L 219.862081 294.467899 
L 221.165915 294.782221 
L 222.469748 291.501427 
L 223.773582 290.978643 
L 225.077415 294.261115 
L 226.381249 294.585192 
L 227.685082 291.969132 
L 228.988916 292.259755 
L 230.292749 295.365337 
L 231.596583 293.538076 
L 232.900416 294.393884 
L 234.20425 292.753467 
L 235.508083 292.58989 
L 236.811917 290.5124 
L 238.11575 290.153635 
L 239.419584 291.900232 
L 240.723417 289.859633 
L 242.027251 293.591726 
L 243.331084 290.524476 
L 244.634918 289.798997 
L 245.938751 291.225055 
L 247.242585 289.762902 
L 248.546418 289.826481 
L 249.850252 289.694751 
L 251.154085 292.914876 
L 252.457919 291.728157 
L 253.761752 289.507944 
L 255.065586 290.183995 
L 256.369419 289.592091 
L 257.673253 291.281582 
L 258.977087 290.339082 
L 260.28092 289.666272 
L 261.584754 289.533655 
L 262.888587 289.94628 
L 264.192421 291.429165 
L 265.496254 289.654428 
L 266.800088 289.814833 
L 268.103921 289.512826 
L 269.407755 289.434894 
L 270.711588 289.678348 
L 272.015422 290.048419 
L 274.623089 289.693377 
L 275.926922 289.862008 
L 277.230756 289.806948 
L 278.534589 289.61252 
L 279.838423 289.693161 
L 281.142256 289.920125 
L 283.749923 289.785677 
L 286.35759 290.358877 
L 287.661424 291.047389 
L 288.965257 289.74569 
L 290.269091 289.930354 
L 291.572924 291.5735 
L 292.876758 289.872324 
L 294.180591 289.790969 
L 296.788258 289.993817 
L 298.092092 289.719247 
L 299.395926 289.93411 
L 300.699759 289.84943 
L 302.003593 290.210952 
L 303.307426 289.749795 
L 304.61126 289.939949 
L 305.915093 289.856336 
L 307.218927 289.942397 
L 308.52276 289.738932 
L 311.130427 289.746987 
L 313.738094 289.827574 
L 315.041928 289.581268 
L 317.649595 289.713016 
L 318.953428 289.957738 
L 320.257262 290.646839 
L 321.561095 289.727658 
L 324.168762 290.163349 
L 325.472596 290.393448 
L 326.776429 289.534253 
L 328.080263 289.655568 
L 329.384096 289.639061 
L 330.68793 289.759204 
L 333.295597 290.287031 
L 334.59943 289.77275 
L 335.903264 292.9514 
L 337.207097 290.015671 
L 338.510931 289.845161 
L 341.118598 290.791193 
L 343.726265 289.756031 
L 346.333932 289.859053 
L 347.637766 291.222816 
L 348.941599 295.488 
L 350.245433 294.865082 
L 351.549266 289.865568 
L 354.156933 291.99215 
L 355.460767 290.294367 
L 356.7646 289.778651 
L 360.676101 290.090488 
L 361.979934 289.911347 
L 363.283768 289.876494 
L 364.587601 289.982393 
L 365.891435 290.639015 
L 367.195268 289.748117 
L 368.499102 290.255947 
L 369.802935 290.28136 
L 371.106769 289.889726 
L 372.410602 291.259924 
L 373.714436 290.147447 
L 375.018269 290.265729 
L 376.322103 290.192606 
L 377.625936 291.115063 
L 378.92977 290.97641 
L 380.233604 290.190906 
L 381.537437 290.612921 
L 382.841271 290.914046 
L 384.145104 290.14563 
L 385.448938 292.276574 
L 386.752771 291.707813 
L 388.056605 294.059187 
L 389.360438 291.747985 
L 390.664272 295.135394 
L 391.968105 290.326841 
L 393.271939 291.650926 
L 394.575772 291.887725 
L 395.879606 291.771104 
L 397.183439 291.498323 
L 398.487273 290.866254 
L 398.487273 290.866254 
" style="fill:none;stroke:#008000;stroke-dasharray:9.6,2.4,1.5,2.4;stroke-dashoffset:0;stroke-width:1.5;"/>
   </g>
   <g id="line2d_31">
    <path clip-path="url(#p23f2942c28)" d="M 73.832727 287.019252 
L 75.136561 286.905862 
L 77.744228 286.523771 
L 79.048061 286.565872 
L 80.351895 286.036583 
L 82.959562 286.157055 
L 85.567229 285.987946 
L 86.871062 285.921132 
L 88.174896 286.08051 
L 90.782563 285.511226 
L 92.086396 285.758289 
L 93.39023 285.558026 
L 94.694064 285.48119 
L 95.997897 285.826502 
L 97.301731 285.38993 
L 98.605564 285.871031 
L 99.909398 285.216867 
L 101.213231 285.530477 
L 102.517065 285.43637 
L 103.820898 285.585406 
L 105.124732 285.424154 
L 107.732399 285.607557 
L 109.036232 285.398507 
L 110.340066 285.396609 
L 111.643899 285.238406 
L 112.947733 285.249998 
L 115.5554 284.946147 
L 116.859233 285.273202 
L 118.163067 285.161979 
L 119.4669 281.371977 
L 120.770734 281.324739 
L 122.074567 285.124984 
L 123.378401 285.543835 
L 124.682234 284.536658 
L 125.986068 285.280614 
L 127.289901 285.006207 
L 128.593735 284.921376 
L 129.897568 284.617806 
L 131.201402 284.813956 
L 132.505235 283.439269 
L 133.809069 284.466196 
L 135.112903 283.444912 
L 136.416736 284.422957 
L 137.72057 284.599069 
L 139.024403 284.362779 
L 140.328237 284.624149 
L 142.935904 284.729773 
L 144.239737 284.620091 
L 146.847404 283.513242 
L 148.151238 284.453985 
L 149.455071 283.668173 
L 152.062738 284.233035 
L 153.366572 284.037171 
L 154.670405 284.252632 
L 157.278072 283.342434 
L 158.581906 284.296532 
L 159.885739 283.986926 
L 162.493406 283.912496 
L 163.79724 284.200085 
L 165.101073 283.649235 
L 166.404907 281.949917 
L 167.70874 282.547921 
L 169.012574 283.717363 
L 170.316407 283.386432 
L 171.620241 284.186737 
L 172.924074 281.680114 
L 174.227908 283.946301 
L 175.531742 280.536752 
L 176.835575 283.283476 
L 178.139409 283.754432 
L 179.443242 283.405186 
L 180.747076 283.344975 
L 182.050909 283.452951 
L 183.354743 283.90178 
L 184.658576 283.734846 
L 185.96241 283.379197 
L 187.266243 283.398136 
L 188.570077 280.99948 
L 189.87391 284.383476 
L 191.177744 283.38573 
L 192.481577 283.911878 
L 193.785411 283.489839 
L 195.089244 284.074288 
L 196.393078 284.053385 
L 197.696911 283.81973 
L 199.000745 283.30704 
L 200.304578 283.398014 
L 201.608412 283.149609 
L 202.912245 283.231367 
L 204.216079 283.613538 
L 205.519912 281.049248 
L 206.823746 282.440586 
L 208.127579 282.532931 
L 209.431413 278.121597 
L 210.735246 281.891692 
L 212.03908 281.728454 
L 213.342913 282.011691 
L 214.646747 282.950655 
L 215.950581 283.122279 
L 217.254414 282.306939 
L 218.558248 281.089163 
L 219.862081 277.847157 
L 221.165915 277.090166 
L 222.469748 280.953841 
L 223.773582 281.474315 
L 225.077415 278.233428 
L 226.381249 277.411675 
L 227.685082 280.731798 
L 228.988916 279.799682 
L 230.292749 276.387024 
L 231.596583 278.738529 
L 232.900416 277.583965 
L 234.20425 279.382863 
L 235.508083 279.660193 
L 236.811917 282.527199 
L 238.11575 282.954216 
L 239.419584 280.516632 
L 240.723417 283.231352 
L 242.027251 279.05244 
L 243.331084 281.924054 
L 244.634918 283.583663 
L 245.938751 281.118549 
L 247.242585 283.440325 
L 248.546418 283.464537 
L 249.850252 282.892255 
L 251.154085 279.404133 
L 252.457919 280.882094 
L 253.761752 283.584487 
L 255.065586 282.429926 
L 256.369419 282.846042 
L 257.673253 281.353102 
L 258.977087 281.923021 
L 260.28092 283.255441 
L 262.888587 283.054411 
L 264.192421 280.834795 
L 265.496254 283.351462 
L 266.800088 283.16776 
L 269.407755 283.080442 
L 270.711588 283.135594 
L 272.015422 282.517631 
L 275.926922 283.130404 
L 277.230756 282.666225 
L 278.534589 283.004654 
L 281.142256 282.950419 
L 282.44609 282.848055 
L 283.749923 283.010168 
L 285.053757 282.765689 
L 287.661424 281.168378 
L 288.965257 282.049219 
L 290.269091 281.789914 
L 291.572924 279.871783 
L 292.876758 281.901079 
L 294.180591 282.426146 
L 295.484425 281.796449 
L 296.788258 282.063118 
L 298.092092 282.135729 
L 299.395926 282.422778 
L 300.699759 282.505725 
L 302.003593 281.558158 
L 303.307426 281.953053 
L 304.61126 282.158571 
L 305.915093 282.105684 
L 307.218927 282.305672 
L 308.52276 282.035817 
L 309.826594 282.318019 
L 311.130427 282.361123 
L 312.434261 282.707237 
L 313.738094 282.15269 
L 315.041928 282.218261 
L 316.345761 282.58807 
L 317.649595 282.177109 
L 318.953428 282.26727 
L 320.257262 281.103981 
L 321.561095 282.182518 
L 322.864929 281.886161 
L 324.168762 281.715308 
L 325.472596 280.850752 
L 326.776429 281.925277 
L 329.384096 281.663329 
L 330.68793 281.988053 
L 333.295597 281.080605 
L 334.59943 281.914717 
L 335.903264 278.18777 
L 337.207097 281.850781 
L 338.510931 282.26814 
L 339.814765 281.173929 
L 341.118598 280.700179 
L 342.422432 281.238055 
L 343.726265 282.379839 
L 345.030099 281.795198 
L 346.333932 282.059841 
L 347.637766 280.696271 
L 348.941599 275.265182 
L 350.245433 275.659246 
L 351.549266 282.484192 
L 352.8531 280.379882 
L 354.156933 279.885929 
L 355.460767 281.199361 
L 356.7646 282.117333 
L 358.068434 282.263733 
L 359.372267 282.043904 
L 361.979934 281.923222 
L 363.283768 282.16369 
L 364.587601 282.552388 
L 365.891435 281.039032 
L 367.195268 281.668673 
L 368.499102 281.433635 
L 369.802935 281.371118 
L 371.106769 282.599236 
L 372.410602 280.438943 
L 373.714436 281.276081 
L 375.018269 280.982409 
L 376.322103 281.107706 
L 377.625936 279.139949 
L 380.233604 280.493977 
L 381.537437 280.517585 
L 382.841271 279.882534 
L 384.145104 280.974094 
L 385.448938 278.322367 
L 386.752771 278.822106 
L 388.056605 275.709557 
L 389.360438 278.122446 
L 390.664272 275.663867 
L 391.968105 281.074739 
L 393.271939 278.717374 
L 394.575772 278.49848 
L 395.879606 278.495257 
L 397.183439 279.50974 
L 398.487273 279.629689 
L 398.487273 279.629689 
" style="fill:none;stroke:#008000;stroke-dasharray:9.6,2.4,1.5,2.4;stroke-dashoffset:0;stroke-width:1.5;"/>
   </g>
   <g id="line2d_32">
    <path clip-path="url(#p23f2942c28)" d="M 73.832727 280.516194 
L 75.136561 281.931251 
L 76.440394 277.955615 
L 77.744228 276.94486 
L 79.048061 280.853113 
L 80.351895 267.915448 
L 81.655728 276.136256 
L 82.959562 277.955615 
L 84.263395 273.440909 
L 85.567229 274.990734 
L 86.871062 275.799338 
L 88.174896 277.820848 
L 89.478729 271.217248 
L 90.782563 274.384281 
L 92.086396 273.373526 
L 93.39023 278.22515 
L 94.694064 275.731954 
L 95.997897 275.934105 
L 97.301731 262.592139 
L 98.605564 278.022999 
L 99.909398 253.360576 
L 101.213231 276.675325 
L 102.517065 277.147011 
L 103.820898 277.416546 
L 105.124732 271.688934 
L 106.428565 272.362771 
L 107.732399 266.635159 
L 109.036232 276.068872 
L 110.340066 276.94486 
L 111.643899 260.503245 
L 112.947733 258.346968 
L 114.251566 273.979979 
L 115.5554 260.705396 
L 116.859233 273.64306 
L 118.163067 274.92335 
L 119.4669 144.940254 
L 120.770734 143.323046 
L 122.074567 271.756318 
L 123.378401 277.820848 
L 124.682234 252.349821 
L 125.986068 274.586432 
L 127.289901 271.823701 
L 128.593735 262.120453 
L 129.897568 261.311849 
L 131.201402 272.969224 
L 132.505235 250.260927 
L 133.809069 259.896792 
L 135.112903 232.471639 
L 136.416736 272.767073 
L 137.72057 256.797143 
L 139.024403 263.131208 
L 140.328237 276.607942 
L 141.63207 272.699689 
L 142.935904 275.731954 
L 144.239737 272.497538 
L 145.543571 246.82436 
L 146.847404 231.123966 
L 148.151238 273.306142 
L 149.455071 255.247319 
L 150.758905 256.931911 
L 152.062738 257.47098 
L 153.366572 252.484588 
L 154.670405 270.812946 
L 155.974239 264.748416 
L 157.278072 222.161938 
L 158.581906 266.972077 
L 159.885739 273.979979 
L 161.189573 275.529803 
L 162.493406 272.497538 
L 163.79724 267.982832 
L 165.101073 257.538364 
L 166.404907 201.475152 
L 167.70874 233.347627 
L 169.012574 270.947714 
L 170.316407 258.010049 
L 171.620241 270.476028 
L 172.924074 210.032877 
L 174.227908 260.570629 
L 175.531742 159.899428 
L 176.835575 263.063824 
L 178.139409 267.443763 
L 179.443242 272.564922 
L 182.050909 249.115405 
L 183.354743 266.365624 
L 184.658576 269.802191 
L 185.96241 245.880989 
L 187.266243 245.544071 
L 188.570077 159.292975 
L 189.87391 256.72976 
L 191.177744 269.397889 
L 192.481577 262.25522 
L 193.785411 264.883183 
L 195.089244 273.306142 
L 196.393078 275.125501 
L 197.696911 258.346968 
L 199.000745 227.956933 
L 200.304578 247.430813 
L 201.608412 222.768391 
L 202.912245 229.439374 
L 204.216079 255.988539 
L 205.519912 198.847189 
L 206.823746 213.334677 
L 208.127579 234.830067 
L 209.431413 99.321511 
L 210.735246 199.386258 
L 212.03908 197.229981 
L 213.342913 229.169839 
L 214.646747 251.541217 
L 215.950581 267.645914 
L 217.254414 251.339066 
L 218.558248 215.490955 
L 219.862081 148.242054 
L 221.165915 162.662159 
L 223.773582 227.620015 
L 225.077415 143.120895 
L 226.381249 133.350263 
L 227.685082 194.46725 
L 228.988916 178.497321 
L 230.292749 98.445523 
L 232.900416 120.345215 
L 234.20425 146.085776 
L 235.508083 197.634283 
L 236.811917 224.992052 
L 238.11575 233.684545 
L 239.419584 169.198375 
L 240.723417 256.797143 
L 242.027251 151.004784 
L 243.331084 231.191349 
L 244.634918 265.893938 
L 245.938751 188.200569 
L 247.242585 259.829408 
L 248.546418 256.864527 
L 249.850252 256.864527 
L 251.154085 155.654257 
L 252.457919 195.343238 
L 253.761752 259.627257 
L 255.065586 229.439374 
L 256.369419 257.605747 
L 257.673253 186.987663 
L 258.977087 229.169839 
L 260.28092 257.942666 
L 261.584754 265.017951 
L 262.888587 258.616502 
L 264.192421 190.491614 
L 265.496254 271.958469 
L 266.800088 261.244465 
L 268.103921 270.610795 
L 269.407755 269.330505 
L 270.711588 271.486783 
L 272.015422 259.020804 
L 273.319255 265.152718 
L 274.623089 263.53551 
L 275.926922 268.454518 
L 277.230756 255.651621 
L 278.534589 264.950567 
L 279.838423 270.745563 
L 281.142256 256.797143 
L 282.44609 264.27673 
L 283.749923 262.659522 
L 285.053757 242.579189 
L 286.35759 253.42796 
L 287.661424 199.79056 
L 288.965257 268.791436 
L 290.269091 268.117599 
L 291.572924 172.095872 
L 292.876758 251.608601 
L 294.180591 264.074579 
L 295.484425 255.516854 
L 296.788258 248.643719 
L 298.092092 266.972077 
L 299.395926 263.670277 
L 300.699759 259.020804 
L 302.003593 239.546924 
L 303.307426 264.748416 
L 304.61126 258.279584 
L 305.915093 266.904693 
L 307.218927 261.581384 
L 308.52276 267.106844 
L 309.826594 268.724052 
L 311.130427 265.691787 
L 312.434261 266.83731 
L 313.738094 261.244465 
L 315.041928 268.589285 
L 316.345761 268.521901 
L 317.649595 268.724052 
L 318.953428 254.236564 
L 320.257262 216.164791 
L 321.561095 263.198592 
L 322.864929 254.708249 
L 324.168762 249.182789 
L 325.472596 231.93257 
L 326.776429 268.656669 
L 328.080263 266.500391 
L 329.384096 265.354869 
L 330.68793 262.457371 
L 331.991763 264.681032 
L 333.295597 229.439374 
L 334.59943 265.489636 
L 335.903264 161.853555 
L 337.207097 240.961981 
L 338.510931 258.2122 
L 339.814765 242.242271 
L 341.118598 200.194862 
L 343.726265 267.039461 
L 345.030099 268.589285 
L 346.333932 266.365624 
L 347.637766 209.224273 
L 348.941599 53.568 
L 350.245433 69.537929 
L 351.549266 268.387134 
L 352.8531 200.733931 
L 354.156933 184.022782 
L 355.460767 222.970542 
L 356.7646 266.29824 
L 358.068434 269.60004 
L 359.372267 257.066678 
L 360.676101 259.425106 
L 361.979934 255.651621 
L 363.283768 267.780681 
L 364.587601 270.13911 
L 365.891435 216.636477 
L 367.195268 268.117599 
L 368.499102 257.538364 
L 369.802935 228.226468 
L 371.106769 259.020804 
L 372.410602 186.313826 
L 373.714436 247.498197 
L 375.018269 237.592798 
L 376.322103 241.501051 
L 377.625936 197.364748 
L 378.92977 203.361894 
L 380.233604 246.959128 
L 381.537437 222.229321 
L 382.841271 210.571947 
L 384.145104 254.708249 
L 385.448938 179.575459 
L 386.752771 198.645038 
L 388.056605 145.344556 
L 389.360438 216.703861 
L 390.664272 63.945085 
L 391.968105 244.533316 
L 393.271939 164.009832 
L 394.575772 176.812729 
L 395.879606 193.254344 
L 397.183439 179.373308 
L 398.487273 190.761148 
L 398.487273 190.761148 
" style="fill:none;stroke:#ff0000;stroke-linecap:square;stroke-width:1.5;"/>
   </g>
   <g id="patch_3">
    <path d="M 57.6 307.584 
L 57.6 41.472 
" style="fill:none;stroke:#000000;stroke-linecap:square;stroke-linejoin:miter;stroke-width:0.8;"/>
   </g>
   <g id="patch_4">
    <path d="M 414.72 307.584 
L 414.72 41.472 
" style="fill:none;stroke:#000000;stroke-linecap:square;stroke-linejoin:miter;stroke-width:0.8;"/>
   </g>
   <g id="patch_5">
    <path d="M 57.6 307.584 
L 414.72 307.584 
" style="fill:none;stroke:#000000;stroke-linecap:square;stroke-linejoin:miter;stroke-width:0.8;"/>
   </g>
   <g id="patch_6">
    <path d="M 57.6 41.472 
L 414.72 41.472 
" style="fill:none;stroke:#000000;stroke-linecap:square;stroke-linejoin:miter;stroke-width:0.8;"/>
   </g>
   <g id="text_17">
    <!-- Population's average and best fitness: Standard full direct -->
    <g transform="translate(62.091563 35.472)scale(0.12 -0.12)">
     <defs>
      <path d="M 1259 4147 
L 1259 2394 
L 2053 2394 
Q 2494 2394 2734 2622 
Q 2975 2850 2975 3272 
Q 2975 3691 2734 3919 
Q 2494 4147 2053 4147 
L 1259 4147 
z
M 628 4666 
L 2053 4666 
Q 2838 4666 3239 4311 
Q 3641 3956 3641 3272 
Q 3641 2581 3239 2228 
Q 2838 1875 2053 1875 
L 1259 1875 
L 1259 0 
L 628 0 
L 628 4666 
z
" id="DejaVuSans-50" transform="scale(0.015625)"/>
      <path d="M 1159 525 
L 1159 -1331 
L 581 -1331 
L 581 3500 
L 1159 3500 
L 1159 2969 
Q 1341 3281 1617 3432 
Q 1894 3584 2278 3584 
Q 2916 3584 3314 3078 
Q 3713 2572 3713 1747 
Q 3713 922 3314 415 
Q 2916 -91 2278 -91 
Q 1894 -91 1617 61 
Q 1341 213 1159 525 
z
M 3116 1747 
Q 3116 2381 2855 2742 
Q 2594 3103 2138 3103 
Q 1681 3103 1420 2742 
Q 1159 2381 1159 1747 
Q 1159 1113 1420 752 
Q 1681 391 2138 391 
Q 2594 391 2855 752 
Q 3116 1113 3116 1747 
z
" id="DejaVuSans-70" transform="scale(0.015625)"/>
      <path d="M 544 1381 
L 544 3500 
L 1119 3500 
L 1119 1403 
Q 1119 906 1312 657 
Q 1506 409 1894 409 
Q 2359 409 2629 706 
Q 2900 1003 2900 1516 
L 2900 3500 
L 3475 3500 
L 3475 0 
L 2900 0 
L 2900 538 
Q 2691 219 2414 64 
Q 2138 -91 1772 -91 
Q 1169 -91 856 284 
Q 544 659 544 1381 
z
M 1991 3584 
L 1991 3584 
z
" id="DejaVuSans-75" transform="scale(0.015625)"/>
      <path d="M 603 4863 
L 1178 4863 
L 1178 0 
L 603 0 
L 603 4863 
z
" id="DejaVuSans-6c" transform="scale(0.015625)"/>
      <path d="M 1147 4666 
L 1147 2931 
L 616 2931 
L 616 4666 
L 1147 4666 
z
" id="DejaVuSans-27" transform="scale(0.015625)"/>
      <path id="DejaVuSans-20" transform="scale(0.015625)"/>
      <path d="M 191 3500 
L 800 3500 
L 1894 563 
L 2988 3500 
L 3597 3500 
L 2284 0 
L 1503 0 
L 191 3500 
z
" id="DejaVuSans-76" transform="scale(0.015625)"/>
      <path d="M 2906 1791 
Q 2906 2416 2648 2759 
Q 2391 3103 1925 3103 
Q 1463 3103 1205 2759 
Q 947 2416 947 1791 
Q 947 1169 1205 825 
Q 1463 481 1925 481 
Q 2391 481 2648 825 
Q 2906 1169 2906 1791 
z
M 3481 434 
Q 3481 -459 3084 -895 
Q 2688 -1331 1869 -1331 
Q 1566 -1331 1297 -1286 
Q 1028 -1241 775 -1147 
L 775 -588 
Q 1028 -725 1275 -790 
Q 1522 -856 1778 -856 
Q 2344 -856 2625 -561 
Q 2906 -266 2906 331 
L 2906 616 
Q 2728 306 2450 153 
Q 2172 0 1784 0 
Q 1141 0 747 490 
Q 353 981 353 1791 
Q 353 2603 747 3093 
Q 1141 3584 1784 3584 
Q 2172 3584 2450 3431 
Q 2728 3278 2906 2969 
L 2906 3500 
L 3481 3500 
L 3481 434 
z
" id="DejaVuSans-67" transform="scale(0.015625)"/>
      <path d="M 2906 2969 
L 2906 4863 
L 3481 4863 
L 3481 0 
L 2906 0 
L 2906 525 
Q 2725 213 2448 61 
Q 2172 -91 1784 -91 
Q 1150 -91 751 415 
Q 353 922 353 1747 
Q 353 2572 751 3078 
Q 1150 3584 1784 3584 
Q 2172 3584 2448 3432 
Q 2725 3281 2906 2969 
z
M 947 1747 
Q 947 1113 1208 752 
Q 1469 391 1925 391 
Q 2381 391 2643 752 
Q 2906 1113 2906 1747 
Q 2906 2381 2643 2742 
Q 2381 3103 1925 3103 
Q 1469 3103 1208 2742 
Q 947 2381 947 1747 
z
" id="DejaVuSans-64" transform="scale(0.015625)"/>
      <path d="M 3116 1747 
Q 3116 2381 2855 2742 
Q 2594 3103 2138 3103 
Q 1681 3103 1420 2742 
Q 1159 2381 1159 1747 
Q 1159 1113 1420 752 
Q 1681 391 2138 391 
Q 2594 391 2855 752 
Q 3116 1113 3116 1747 
z
M 1159 2969 
Q 1341 3281 1617 3432 
Q 1894 3584 2278 3584 
Q 2916 3584 3314 3078 
Q 3713 2572 3713 1747 
Q 3713 922 3314 415 
Q 2916 -91 2278 -91 
Q 1894 -91 1617 61 
Q 1341 213 1159 525 
L 1159 0 
L 581 0 
L 581 4863 
L 1159 4863 
L 1159 2969 
z
" id="DejaVuSans-62" transform="scale(0.015625)"/>
      <path d="M 2375 4863 
L 2375 4384 
L 1825 4384 
Q 1516 4384 1395 4259 
Q 1275 4134 1275 3809 
L 1275 3500 
L 2222 3500 
L 2222 3053 
L 1275 3053 
L 1275 0 
L 697 0 
L 697 3053 
L 147 3053 
L 147 3500 
L 697 3500 
L 697 3744 
Q 697 4328 969 4595 
Q 1241 4863 1831 4863 
L 2375 4863 
z
" id="DejaVuSans-66" transform="scale(0.015625)"/>
      <path d="M 750 794 
L 1409 794 
L 1409 0 
L 750 0 
L 750 794 
z
M 750 3309 
L 1409 3309 
L 1409 2516 
L 750 2516 
L 750 3309 
z
" id="DejaVuSans-3a" transform="scale(0.015625)"/>
      <path d="M 3425 4513 
L 3425 3897 
Q 3066 4069 2747 4153 
Q 2428 4238 2131 4238 
Q 1616 4238 1336 4038 
Q 1056 3838 1056 3469 
Q 1056 3159 1242 3001 
Q 1428 2844 1947 2747 
L 2328 2669 
Q 3034 2534 3370 2195 
Q 3706 1856 3706 1288 
Q 3706 609 3251 259 
Q 2797 -91 1919 -91 
Q 1588 -91 1214 -16 
Q 841 59 441 206 
L 441 856 
Q 825 641 1194 531 
Q 1563 422 1919 422 
Q 2459 422 2753 634 
Q 3047 847 3047 1241 
Q 3047 1584 2836 1778 
Q 2625 1972 2144 2069 
L 1759 2144 
Q 1053 2284 737 2584 
Q 422 2884 422 3419 
Q 422 4038 858 4394 
Q 1294 4750 2059 4750 
Q 2388 4750 2728 4690 
Q 3069 4631 3425 4513 
z
" id="DejaVuSans-53" transform="scale(0.015625)"/>
      <path d="M 3122 3366 
L 3122 2828 
Q 2878 2963 2633 3030 
Q 2388 3097 2138 3097 
Q 1578 3097 1268 2742 
Q 959 2388 959 1747 
Q 959 1106 1268 751 
Q 1578 397 2138 397 
Q 2388 397 2633 464 
Q 2878 531 3122 666 
L 3122 134 
Q 2881 22 2623 -34 
Q 2366 -91 2075 -91 
Q 1284 -91 818 406 
Q 353 903 353 1747 
Q 353 2603 823 3093 
Q 1294 3584 2113 3584 
Q 2378 3584 2631 3529 
Q 2884 3475 3122 3366 
z
" id="DejaVuSans-63" transform="scale(0.015625)"/>
     </defs>
     <use xlink:href="#DejaVuSans-50"/>
     <use x="56.677734" xlink:href="#DejaVuSans-6f"/>
     <use x="117.859375" xlink:href="#DejaVuSans-70"/>
     <use x="181.335938" xlink:href="#DejaVuSans-75"/>
     <use x="244.714844" xlink:href="#DejaVuSans-6c"/>
     <use x="272.498047" xlink:href="#DejaVuSans-61"/>
     <use x="333.777344" xlink:href="#DejaVuSans-74"/>
     <use x="372.986328" xlink:href="#DejaVuSans-69"/>
     <use x="400.769531" xlink:href="#DejaVuSans-6f"/>
     <use x="461.951172" xlink:href="#DejaVuSans-6e"/>
     <use x="525.330078" xlink:href="#DejaVuSans-27"/>
     <use x="552.820312" xlink:href="#DejaVuSans-73"/>
     <use x="604.919922" xlink:href="#DejaVuSans-20"/>
     <use x="636.707031" xlink:href="#DejaVuSans-61"/>
     <use x="697.986328" xlink:href="#DejaVuSans-76"/>
     <use x="757.166016" xlink:href="#DejaVuSans-65"/>
     <use x="818.689453" xlink:href="#DejaVuSans-72"/>
     <use x="859.802734" xlink:href="#DejaVuSans-61"/>
     <use x="921.082031" xlink:href="#DejaVuSans-67"/>
     <use x="984.558594" xlink:href="#DejaVuSans-65"/>
     <use x="1046.082031" xlink:href="#DejaVuSans-20"/>
     <use x="1077.869141" xlink:href="#DejaVuSans-61"/>
     <use x="1139.148438" xlink:href="#DejaVuSans-6e"/>
     <use x="1202.527344" xlink:href="#DejaVuSans-64"/>
     <use x="1266.003906" xlink:href="#DejaVuSans-20"/>
     <use x="1297.791016" xlink:href="#DejaVuSans-62"/>
     <use x="1361.267578" xlink:href="#DejaVuSans-65"/>
     <use x="1422.791016" xlink:href="#DejaVuSans-73"/>
     <use x="1474.890625" xlink:href="#DejaVuSans-74"/>
     <use x="1514.099609" xlink:href="#DejaVuSans-20"/>
     <use x="1545.886719" xlink:href="#DejaVuSans-66"/>
     <use x="1581.091797" xlink:href="#DejaVuSans-69"/>
     <use x="1608.875" xlink:href="#DejaVuSans-74"/>
     <use x="1648.083984" xlink:href="#DejaVuSans-6e"/>
     <use x="1711.462891" xlink:href="#DejaVuSans-65"/>
     <use x="1772.986328" xlink:href="#DejaVuSans-73"/>
     <use x="1825.085938" xlink:href="#DejaVuSans-73"/>
     <use x="1877.185547" xlink:href="#DejaVuSans-3a"/>
     <use x="1910.876953" xlink:href="#DejaVuSans-20"/>
     <use x="1942.664062" xlink:href="#DejaVuSans-53"/>
     <use x="2006.140625" xlink:href="#DejaVuSans-74"/>
     <use x="2045.349609" xlink:href="#DejaVuSans-61"/>
     <use x="2106.628906" xlink:href="#DejaVuSans-6e"/>
     <use x="2170.007812" xlink:href="#DejaVuSans-64"/>
     <use x="2233.484375" xlink:href="#DejaVuSans-61"/>
     <use x="2294.763672" xlink:href="#DejaVuSans-72"/>
     <use x="2334.126953" xlink:href="#DejaVuSans-64"/>
     <use x="2397.603516" xlink:href="#DejaVuSans-20"/>
     <use x="2429.390625" xlink:href="#DejaVuSans-66"/>
     <use x="2464.595703" xlink:href="#DejaVuSans-75"/>
     <use x="2527.974609" xlink:href="#DejaVuSans-6c"/>
     <use x="2555.757812" xlink:href="#DejaVuSans-6c"/>
     <use x="2583.541016" xlink:href="#DejaVuSans-20"/>
     <use x="2615.328125" xlink:href="#DejaVuSans-64"/>
     <use x="2678.804688" xlink:href="#DejaVuSans-69"/>
     <use x="2706.587891" xlink:href="#DejaVuSans-72"/>
     <use x="2745.451172" xlink:href="#DejaVuSans-65"/>
     <use x="2806.974609" xlink:href="#DejaVuSans-63"/>
     <use x="2861.955078" xlink:href="#DejaVuSans-74"/>
    </g>
   </g>
   <g id="legend_1">
    <g id="patch_7">
     <path d="M 64.6 108.1845 
L 137.540625 108.1845 
Q 139.540625 108.1845 139.540625 106.1845 
L 139.540625 48.472 
Q 139.540625 46.472 137.540625 46.472 
L 64.6 46.472 
Q 62.6 46.472 62.6 48.472 
L 62.6 106.1845 
Q 62.6 108.1845 64.6 108.1845 
z
" style="fill:#ffffff;opacity:0.8;stroke:#cccccc;stroke-linejoin:miter;"/>
    </g>
    <g id="line2d_33">
     <path d="M 66.6 54.570438 
L 86.6 54.570438 
" style="fill:none;stroke:#0000ff;stroke-linecap:square;stroke-width:1.5;"/>
    </g>
    <g id="line2d_34"/>
    <g id="text_18">
     <!-- average -->
     <g transform="translate(94.6 58.070438)scale(0.1 -0.1)">
      <use xlink:href="#DejaVuSans-61"/>
      <use x="61.279297" xlink:href="#DejaVuSans-76"/>
      <use x="120.458984" xlink:href="#DejaVuSans-65"/>
      <use x="181.982422" xlink:href="#DejaVuSans-72"/>
      <use x="223.095703" xlink:href="#DejaVuSans-61"/>
      <use x="284.375" xlink:href="#DejaVuSans-67"/>
      <use x="347.851562" xlink:href="#DejaVuSans-65"/>
     </g>
    </g>
    <g id="line2d_35">
     <path d="M 66.6 69.248563 
L 86.6 69.248563 
" style="fill:none;stroke:#008000;stroke-dasharray:9.6,2.4,1.5,2.4;stroke-dashoffset:0;stroke-width:1.5;"/>
    </g>
    <g id="line2d_36"/>
    <g id="text_19">
     <!-- -1 sd -->
     <g transform="translate(94.6 72.748563)scale(0.1 -0.1)">
      <defs>
       <path d="M 313 2009 
L 1997 2009 
L 1997 1497 
L 313 1497 
L 313 2009 
z
" id="DejaVuSans-2d" transform="scale(0.015625)"/>
      </defs>
      <use xlink:href="#DejaVuSans-2d"/>
      <use x="36.083984" xlink:href="#DejaVuSans-31"/>
      <use x="99.707031" xlink:href="#DejaVuSans-20"/>
      <use x="131.494141" xlink:href="#DejaVuSans-73"/>
      <use x="183.59375" xlink:href="#DejaVuSans-64"/>
     </g>
    </g>
    <g id="line2d_37">
     <path d="M 66.6 83.926688 
L 86.6 83.926688 
" style="fill:none;stroke:#008000;stroke-dasharray:9.6,2.4,1.5,2.4;stroke-dashoffset:0;stroke-width:1.5;"/>
    </g>
    <g id="line2d_38"/>
    <g id="text_20">
     <!-- +1 sd -->
     <g transform="translate(94.6 87.426688)scale(0.1 -0.1)">
      <defs>
       <path d="M 2944 4013 
L 2944 2272 
L 4684 2272 
L 4684 1741 
L 2944 1741 
L 2944 0 
L 2419 0 
L 2419 1741 
L 678 1741 
L 678 2272 
L 2419 2272 
L 2419 4013 
L 2944 4013 
z
" id="DejaVuSans-2b" transform="scale(0.015625)"/>
      </defs>
      <use xlink:href="#DejaVuSans-2b"/>
      <use x="83.789062" xlink:href="#DejaVuSans-31"/>
      <use x="147.412109" xlink:href="#DejaVuSans-20"/>
      <use x="179.199219" xlink:href="#DejaVuSans-73"/>
      <use x="231.298828" xlink:href="#DejaVuSans-64"/>
     </g>
    </g>
    <g id="line2d_39">
     <path d="M 66.6 98.604813 
L 86.6 98.604813 
" style="fill:none;stroke:#ff0000;stroke-linecap:square;stroke-width:1.5;"/>
    </g>
    <g id="line2d_40"/>
    <g id="text_21">
     <!-- best -->
     <g transform="translate(94.6 102.104813)scale(0.1 -0.1)">
      <use xlink:href="#DejaVuSans-62"/>
      <use x="63.476562" xlink:href="#DejaVuSans-65"/>
      <use x="125" xlink:href="#DejaVuSans-73"/>
      <use x="177.099609" xlink:href="#DejaVuSans-74"/>
     </g>
    </g>
   </g>
  </g>
 </g>
 <defs>
  <clipPath id="p23f2942c28">
   <rect height="266.112" width="357.12" x="57.6" y="41.472"/>
  </clipPath>
 </defs>
</svg>
