<?xml version="1.0" encoding="utf-8" standalone="no"?>
<!DOCTYPE svg PUBLIC "-//W3C//DTD SVG 1.1//EN"
  "http://www.w3.org/Graphics/SVG/1.1/DTD/svg11.dtd">
<svg height="345.6pt" version="1.1" viewBox="0 0 460.8 345.6" width="460.8pt" xmlns="http://www.w3.org/2000/svg" xmlns:xlink="http://www.w3.org/1999/xlink">
 <metadata>
  <rdf:RDF xmlns:cc="http://creativecommons.org/ns#" xmlns:dc="http://purl.org/dc/elements/1.1/" xmlns:rdf="http://www.w3.org/1999/02/22-rdf-syntax-ns#">
   <cc:Work>
    <dc:type rdf:resource="http://purl.org/dc/dcmitype/StillImage"/>
    <dc:date>2021-07-15T05:37:42.733085</dc:date>
    <dc:format>image/svg+xml</dc:format>
    <dc:creator>
     <cc:Agent>
      <dc:title>Matplotlib v3.4.2, https://matplotlib.org/</dc:title>
     </cc:Agent>
    </dc:creator>
   </cc:Work>
  </rdf:RDF>
 </metadata>
 <defs>
  <style type="text/css">*{stroke-linecap:butt;stroke-linejoin:round;}</style>
 </defs>
 <g id="figure_1">
  <g id="patch_1">
   <path d="M 0 345.6 
L 460.8 345.6 
L 460.8 0 
L 0 0 
z
" style="fill:#ffffff;"/>
  </g>
  <g id="axes_1">
   <g id="patch_2">
    <path d="M 57.6 307.584 
L 414.72 307.584 
L 414.72 41.472 
L 57.6 41.472 
z
" style="fill:#ffffff;"/>
   </g>
   <g id="matplotlib.axis_1">
    <g id="xtick_1">
     <g id="line2d_1">
      <path clip-path="url(#p05816c8fb1)" d="M 73.832727 307.584 
L 73.832727 41.472 
" style="fill:none;stroke:#b0b0b0;stroke-linecap:square;stroke-width:0.8;"/>
     </g>
     <g id="line2d_2">
      <defs>
       <path d="M 0 0 
L 0 3.5 
" id="maab4f78928" style="stroke:#000000;stroke-width:0.8;"/>
      </defs>
      <g>
       <use style="stroke:#000000;stroke-width:0.8;" x="73.832727" xlink:href="#maab4f78928" y="307.584"/>
      </g>
     </g>
     <g id="text_1">
      <!-- 0 -->
      <g transform="translate(70.651477 322.182437)scale(0.1 -0.1)">
       <defs>
        <path d="M 2034 4250 
Q 1547 4250 1301 3770 
Q 1056 3291 1056 2328 
Q 1056 1369 1301 889 
Q 1547 409 2034 409 
Q 2525 409 2770 889 
Q 3016 1369 3016 2328 
Q 3016 3291 2770 3770 
Q 2525 4250 2034 4250 
z
M 2034 4750 
Q 2819 4750 3233 4129 
Q 3647 3509 3647 2328 
Q 3647 1150 3233 529 
Q 2819 -91 2034 -91 
Q 1250 -91 836 529 
Q 422 1150 422 2328 
Q 422 3509 836 4129 
Q 1250 4750 2034 4750 
z
" id="DejaVuSans-30" transform="scale(0.015625)"/>
       </defs>
       <use xlink:href="#DejaVuSans-30"/>
      </g>
     </g>
    </g>
    <g id="xtick_2">
     <g id="line2d_3">
      <path clip-path="url(#p05816c8fb1)" d="M 139.024403 307.584 
L 139.024403 41.472 
" style="fill:none;stroke:#b0b0b0;stroke-linecap:square;stroke-width:0.8;"/>
     </g>
     <g id="line2d_4">
      <g>
       <use style="stroke:#000000;stroke-width:0.8;" x="139.024403" xlink:href="#maab4f78928" y="307.584"/>
      </g>
     </g>
     <g id="text_2">
      <!-- 50 -->
      <g transform="translate(132.661903 322.182437)scale(0.1 -0.1)">
       <defs>
        <path d="M 691 4666 
L 3169 4666 
L 3169 4134 
L 1269 4134 
L 1269 2991 
Q 1406 3038 1543 3061 
Q 1681 3084 1819 3084 
Q 2600 3084 3056 2656 
Q 3513 2228 3513 1497 
Q 3513 744 3044 326 
Q 2575 -91 1722 -91 
Q 1428 -91 1123 -41 
Q 819 9 494 109 
L 494 744 
Q 775 591 1075 516 
Q 1375 441 1709 441 
Q 2250 441 2565 725 
Q 2881 1009 2881 1497 
Q 2881 1984 2565 2268 
Q 2250 2553 1709 2553 
Q 1456 2553 1204 2497 
Q 953 2441 691 2322 
L 691 4666 
z
" id="DejaVuSans-35" transform="scale(0.015625)"/>
       </defs>
       <use xlink:href="#DejaVuSans-35"/>
       <use x="63.623047" xlink:href="#DejaVuSans-30"/>
      </g>
     </g>
    </g>
    <g id="xtick_3">
     <g id="line2d_5">
      <path clip-path="url(#p05816c8fb1)" d="M 204.216079 307.584 
L 204.216079 41.472 
" style="fill:none;stroke:#b0b0b0;stroke-linecap:square;stroke-width:0.8;"/>
     </g>
     <g id="line2d_6">
      <g>
       <use style="stroke:#000000;stroke-width:0.8;" x="204.216079" xlink:href="#maab4f78928" y="307.584"/>
      </g>
     </g>
     <g id="text_3">
      <!-- 100 -->
      <g transform="translate(194.672329 322.182437)scale(0.1 -0.1)">
       <defs>
        <path d="M 794 531 
L 1825 531 
L 1825 4091 
L 703 3866 
L 703 4441 
L 1819 4666 
L 2450 4666 
L 2450 531 
L 3481 531 
L 3481 0 
L 794 0 
L 794 531 
z
" id="DejaVuSans-31" transform="scale(0.015625)"/>
       </defs>
       <use xlink:href="#DejaVuSans-31"/>
       <use x="63.623047" xlink:href="#DejaVuSans-30"/>
       <use x="127.246094" xlink:href="#DejaVuSans-30"/>
      </g>
     </g>
    </g>
    <g id="xtick_4">
     <g id="line2d_7">
      <path clip-path="url(#p05816c8fb1)" d="M 269.407755 307.584 
L 269.407755 41.472 
" style="fill:none;stroke:#b0b0b0;stroke-linecap:square;stroke-width:0.8;"/>
     </g>
     <g id="line2d_8">
      <g>
       <use style="stroke:#000000;stroke-width:0.8;" x="269.407755" xlink:href="#maab4f78928" y="307.584"/>
      </g>
     </g>
     <g id="text_4">
      <!-- 150 -->
      <g transform="translate(259.864005 322.182437)scale(0.1 -0.1)">
       <use xlink:href="#DejaVuSans-31"/>
       <use x="63.623047" xlink:href="#DejaVuSans-35"/>
       <use x="127.246094" xlink:href="#DejaVuSans-30"/>
      </g>
     </g>
    </g>
    <g id="xtick_5">
     <g id="line2d_9">
      <path clip-path="url(#p05816c8fb1)" d="M 334.59943 307.584 
L 334.59943 41.472 
" style="fill:none;stroke:#b0b0b0;stroke-linecap:square;stroke-width:0.8;"/>
     </g>
     <g id="line2d_10">
      <g>
       <use style="stroke:#000000;stroke-width:0.8;" x="334.59943" xlink:href="#maab4f78928" y="307.584"/>
      </g>
     </g>
     <g id="text_5">
      <!-- 200 -->
      <g transform="translate(325.05568 322.182437)scale(0.1 -0.1)">
       <defs>
        <path d="M 1228 531 
L 3431 531 
L 3431 0 
L 469 0 
L 469 531 
Q 828 903 1448 1529 
Q 2069 2156 2228 2338 
Q 2531 2678 2651 2914 
Q 2772 3150 2772 3378 
Q 2772 3750 2511 3984 
Q 2250 4219 1831 4219 
Q 1534 4219 1204 4116 
Q 875 4013 500 3803 
L 500 4441 
Q 881 4594 1212 4672 
Q 1544 4750 1819 4750 
Q 2544 4750 2975 4387 
Q 3406 4025 3406 3419 
Q 3406 3131 3298 2873 
Q 3191 2616 2906 2266 
Q 2828 2175 2409 1742 
Q 1991 1309 1228 531 
z
" id="DejaVuSans-32" transform="scale(0.015625)"/>
       </defs>
       <use xlink:href="#DejaVuSans-32"/>
       <use x="63.623047" xlink:href="#DejaVuSans-30"/>
       <use x="127.246094" xlink:href="#DejaVuSans-30"/>
      </g>
     </g>
    </g>
    <g id="xtick_6">
     <g id="line2d_11">
      <path clip-path="url(#p05816c8fb1)" d="M 399.791106 307.584 
L 399.791106 41.472 
" style="fill:none;stroke:#b0b0b0;stroke-linecap:square;stroke-width:0.8;"/>
     </g>
     <g id="line2d_12">
      <g>
       <use style="stroke:#000000;stroke-width:0.8;" x="399.791106" xlink:href="#maab4f78928" y="307.584"/>
      </g>
     </g>
     <g id="text_6">
      <!-- 250 -->
      <g transform="translate(390.247356 322.182437)scale(0.1 -0.1)">
       <use xlink:href="#DejaVuSans-32"/>
       <use x="63.623047" xlink:href="#DejaVuSans-35"/>
       <use x="127.246094" xlink:href="#DejaVuSans-30"/>
      </g>
     </g>
    </g>
    <g id="text_7">
     <!-- Generations -->
     <g transform="translate(205.662344 335.860562)scale(0.1 -0.1)">
      <defs>
       <path d="M 3809 666 
L 3809 1919 
L 2778 1919 
L 2778 2438 
L 4434 2438 
L 4434 434 
Q 4069 175 3628 42 
Q 3188 -91 2688 -91 
Q 1594 -91 976 548 
Q 359 1188 359 2328 
Q 359 3472 976 4111 
Q 1594 4750 2688 4750 
Q 3144 4750 3555 4637 
Q 3966 4525 4313 4306 
L 4313 3634 
Q 3963 3931 3569 4081 
Q 3175 4231 2741 4231 
Q 1884 4231 1454 3753 
Q 1025 3275 1025 2328 
Q 1025 1384 1454 906 
Q 1884 428 2741 428 
Q 3075 428 3337 486 
Q 3600 544 3809 666 
z
" id="DejaVuSans-47" transform="scale(0.015625)"/>
       <path d="M 3597 1894 
L 3597 1613 
L 953 1613 
Q 991 1019 1311 708 
Q 1631 397 2203 397 
Q 2534 397 2845 478 
Q 3156 559 3463 722 
L 3463 178 
Q 3153 47 2828 -22 
Q 2503 -91 2169 -91 
Q 1331 -91 842 396 
Q 353 884 353 1716 
Q 353 2575 817 3079 
Q 1281 3584 2069 3584 
Q 2775 3584 3186 3129 
Q 3597 2675 3597 1894 
z
M 3022 2063 
Q 3016 2534 2758 2815 
Q 2500 3097 2075 3097 
Q 1594 3097 1305 2825 
Q 1016 2553 972 2059 
L 3022 2063 
z
" id="DejaVuSans-65" transform="scale(0.015625)"/>
       <path d="M 3513 2113 
L 3513 0 
L 2938 0 
L 2938 2094 
Q 2938 2591 2744 2837 
Q 2550 3084 2163 3084 
Q 1697 3084 1428 2787 
Q 1159 2491 1159 1978 
L 1159 0 
L 581 0 
L 581 3500 
L 1159 3500 
L 1159 2956 
Q 1366 3272 1645 3428 
Q 1925 3584 2291 3584 
Q 2894 3584 3203 3211 
Q 3513 2838 3513 2113 
z
" id="DejaVuSans-6e" transform="scale(0.015625)"/>
       <path d="M 2631 2963 
Q 2534 3019 2420 3045 
Q 2306 3072 2169 3072 
Q 1681 3072 1420 2755 
Q 1159 2438 1159 1844 
L 1159 0 
L 581 0 
L 581 3500 
L 1159 3500 
L 1159 2956 
Q 1341 3275 1631 3429 
Q 1922 3584 2338 3584 
Q 2397 3584 2469 3576 
Q 2541 3569 2628 3553 
L 2631 2963 
z
" id="DejaVuSans-72" transform="scale(0.015625)"/>
       <path d="M 2194 1759 
Q 1497 1759 1228 1600 
Q 959 1441 959 1056 
Q 959 750 1161 570 
Q 1363 391 1709 391 
Q 2188 391 2477 730 
Q 2766 1069 2766 1631 
L 2766 1759 
L 2194 1759 
z
M 3341 1997 
L 3341 0 
L 2766 0 
L 2766 531 
Q 2569 213 2275 61 
Q 1981 -91 1556 -91 
Q 1019 -91 701 211 
Q 384 513 384 1019 
Q 384 1609 779 1909 
Q 1175 2209 1959 2209 
L 2766 2209 
L 2766 2266 
Q 2766 2663 2505 2880 
Q 2244 3097 1772 3097 
Q 1472 3097 1187 3025 
Q 903 2953 641 2809 
L 641 3341 
Q 956 3463 1253 3523 
Q 1550 3584 1831 3584 
Q 2591 3584 2966 3190 
Q 3341 2797 3341 1997 
z
" id="DejaVuSans-61" transform="scale(0.015625)"/>
       <path d="M 1172 4494 
L 1172 3500 
L 2356 3500 
L 2356 3053 
L 1172 3053 
L 1172 1153 
Q 1172 725 1289 603 
Q 1406 481 1766 481 
L 2356 481 
L 2356 0 
L 1766 0 
Q 1100 0 847 248 
Q 594 497 594 1153 
L 594 3053 
L 172 3053 
L 172 3500 
L 594 3500 
L 594 4494 
L 1172 4494 
z
" id="DejaVuSans-74" transform="scale(0.015625)"/>
       <path d="M 603 3500 
L 1178 3500 
L 1178 0 
L 603 0 
L 603 3500 
z
M 603 4863 
L 1178 4863 
L 1178 4134 
L 603 4134 
L 603 4863 
z
" id="DejaVuSans-69" transform="scale(0.015625)"/>
       <path d="M 1959 3097 
Q 1497 3097 1228 2736 
Q 959 2375 959 1747 
Q 959 1119 1226 758 
Q 1494 397 1959 397 
Q 2419 397 2687 759 
Q 2956 1122 2956 1747 
Q 2956 2369 2687 2733 
Q 2419 3097 1959 3097 
z
M 1959 3584 
Q 2709 3584 3137 3096 
Q 3566 2609 3566 1747 
Q 3566 888 3137 398 
Q 2709 -91 1959 -91 
Q 1206 -91 779 398 
Q 353 888 353 1747 
Q 353 2609 779 3096 
Q 1206 3584 1959 3584 
z
" id="DejaVuSans-6f" transform="scale(0.015625)"/>
       <path d="M 2834 3397 
L 2834 2853 
Q 2591 2978 2328 3040 
Q 2066 3103 1784 3103 
Q 1356 3103 1142 2972 
Q 928 2841 928 2578 
Q 928 2378 1081 2264 
Q 1234 2150 1697 2047 
L 1894 2003 
Q 2506 1872 2764 1633 
Q 3022 1394 3022 966 
Q 3022 478 2636 193 
Q 2250 -91 1575 -91 
Q 1294 -91 989 -36 
Q 684 19 347 128 
L 347 722 
Q 666 556 975 473 
Q 1284 391 1588 391 
Q 1994 391 2212 530 
Q 2431 669 2431 922 
Q 2431 1156 2273 1281 
Q 2116 1406 1581 1522 
L 1381 1569 
Q 847 1681 609 1914 
Q 372 2147 372 2553 
Q 372 3047 722 3315 
Q 1072 3584 1716 3584 
Q 2034 3584 2315 3537 
Q 2597 3491 2834 3397 
z
" id="DejaVuSans-73" transform="scale(0.015625)"/>
      </defs>
      <use xlink:href="#DejaVuSans-47"/>
      <use x="77.490234" xlink:href="#DejaVuSans-65"/>
      <use x="139.013672" xlink:href="#DejaVuSans-6e"/>
      <use x="202.392578" xlink:href="#DejaVuSans-65"/>
      <use x="263.916016" xlink:href="#DejaVuSans-72"/>
      <use x="305.029297" xlink:href="#DejaVuSans-61"/>
      <use x="366.308594" xlink:href="#DejaVuSans-74"/>
      <use x="405.517578" xlink:href="#DejaVuSans-69"/>
      <use x="433.300781" xlink:href="#DejaVuSans-6f"/>
      <use x="494.482422" xlink:href="#DejaVuSans-6e"/>
      <use x="557.861328" xlink:href="#DejaVuSans-73"/>
     </g>
    </g>
   </g>
   <g id="matplotlib.axis_2">
    <g id="ytick_1">
     <g id="line2d_13">
      <path clip-path="url(#p05816c8fb1)" d="M 57.6 284.425897 
L 414.72 284.425897 
" style="fill:none;stroke:#b0b0b0;stroke-linecap:square;stroke-width:0.8;"/>
     </g>
     <g id="line2d_14">
      <defs>
       <path d="M 0 0 
L -3.5 0 
" id="m4cc7b89f48" style="stroke:#000000;stroke-width:0.8;"/>
      </defs>
      <g>
       <use style="stroke:#000000;stroke-width:0.8;" x="57.6" xlink:href="#m4cc7b89f48" y="284.425897"/>
      </g>
     </g>
     <g id="text_8">
      <!-- 0 -->
      <g transform="translate(44.2375 288.225116)scale(0.1 -0.1)">
       <use xlink:href="#DejaVuSans-30"/>
      </g>
     </g>
    </g>
    <g id="ytick_2">
     <g id="line2d_15">
      <path clip-path="url(#p05816c8fb1)" d="M 57.6 239.459419 
L 414.72 239.459419 
" style="fill:none;stroke:#b0b0b0;stroke-linecap:square;stroke-width:0.8;"/>
     </g>
     <g id="line2d_16">
      <g>
       <use style="stroke:#000000;stroke-width:0.8;" x="57.6" xlink:href="#m4cc7b89f48" y="239.459419"/>
      </g>
     </g>
     <g id="text_9">
      <!-- 5000 -->
      <g transform="translate(25.15 243.258638)scale(0.1 -0.1)">
       <use xlink:href="#DejaVuSans-35"/>
       <use x="63.623047" xlink:href="#DejaVuSans-30"/>
       <use x="127.246094" xlink:href="#DejaVuSans-30"/>
       <use x="190.869141" xlink:href="#DejaVuSans-30"/>
      </g>
     </g>
    </g>
    <g id="ytick_3">
     <g id="line2d_17">
      <path clip-path="url(#p05816c8fb1)" d="M 57.6 194.492942 
L 414.72 194.492942 
" style="fill:none;stroke:#b0b0b0;stroke-linecap:square;stroke-width:0.8;"/>
     </g>
     <g id="line2d_18">
      <g>
       <use style="stroke:#000000;stroke-width:0.8;" x="57.6" xlink:href="#m4cc7b89f48" y="194.492942"/>
      </g>
     </g>
     <g id="text_10">
      <!-- 10000 -->
      <g transform="translate(18.7875 198.29216)scale(0.1 -0.1)">
       <use xlink:href="#DejaVuSans-31"/>
       <use x="63.623047" xlink:href="#DejaVuSans-30"/>
       <use x="127.246094" xlink:href="#DejaVuSans-30"/>
       <use x="190.869141" xlink:href="#DejaVuSans-30"/>
       <use x="254.492188" xlink:href="#DejaVuSans-30"/>
      </g>
     </g>
    </g>
    <g id="ytick_4">
     <g id="line2d_19">
      <path clip-path="url(#p05816c8fb1)" d="M 57.6 149.526464 
L 414.72 149.526464 
" style="fill:none;stroke:#b0b0b0;stroke-linecap:square;stroke-width:0.8;"/>
     </g>
     <g id="line2d_20">
      <g>
       <use style="stroke:#000000;stroke-width:0.8;" x="57.6" xlink:href="#m4cc7b89f48" y="149.526464"/>
      </g>
     </g>
     <g id="text_11">
      <!-- 15000 -->
      <g transform="translate(18.7875 153.325682)scale(0.1 -0.1)">
       <use xlink:href="#DejaVuSans-31"/>
       <use x="63.623047" xlink:href="#DejaVuSans-35"/>
       <use x="127.246094" xlink:href="#DejaVuSans-30"/>
       <use x="190.869141" xlink:href="#DejaVuSans-30"/>
       <use x="254.492188" xlink:href="#DejaVuSans-30"/>
      </g>
     </g>
    </g>
    <g id="ytick_5">
     <g id="line2d_21">
      <path clip-path="url(#p05816c8fb1)" d="M 57.6 104.559986 
L 414.72 104.559986 
" style="fill:none;stroke:#b0b0b0;stroke-linecap:square;stroke-width:0.8;"/>
     </g>
     <g id="line2d_22">
      <g>
       <use style="stroke:#000000;stroke-width:0.8;" x="57.6" xlink:href="#m4cc7b89f48" y="104.559986"/>
      </g>
     </g>
     <g id="text_12">
      <!-- 20000 -->
      <g transform="translate(18.7875 108.359205)scale(0.1 -0.1)">
       <use xlink:href="#DejaVuSans-32"/>
       <use x="63.623047" xlink:href="#DejaVuSans-30"/>
       <use x="127.246094" xlink:href="#DejaVuSans-30"/>
       <use x="190.869141" xlink:href="#DejaVuSans-30"/>
       <use x="254.492188" xlink:href="#DejaVuSans-30"/>
      </g>
     </g>
    </g>
    <g id="ytick_6">
     <g id="line2d_23">
      <path clip-path="url(#p05816c8fb1)" d="M 57.6 59.593508 
L 414.72 59.593508 
" style="fill:none;stroke:#b0b0b0;stroke-linecap:square;stroke-width:0.8;"/>
     </g>
     <g id="line2d_24">
      <g>
       <use style="stroke:#000000;stroke-width:0.8;" x="57.6" xlink:href="#m4cc7b89f48" y="59.593508"/>
      </g>
     </g>
     <g id="text_13">
      <!-- 25000 -->
      <g transform="translate(18.7875 63.392727)scale(0.1 -0.1)">
       <use xlink:href="#DejaVuSans-32"/>
       <use x="63.623047" xlink:href="#DejaVuSans-35"/>
       <use x="127.246094" xlink:href="#DejaVuSans-30"/>
       <use x="190.869141" xlink:href="#DejaVuSans-30"/>
       <use x="254.492188" xlink:href="#DejaVuSans-30"/>
      </g>
     </g>
    </g>
    <g id="text_14">
     <!-- Fitness -->
     <g transform="translate(12.707812 191.845187)rotate(-90)scale(0.1 -0.1)">
      <defs>
       <path d="M 628 4666 
L 3309 4666 
L 3309 4134 
L 1259 4134 
L 1259 2759 
L 3109 2759 
L 3109 2228 
L 1259 2228 
L 1259 0 
L 628 0 
L 628 4666 
z
" id="DejaVuSans-46" transform="scale(0.015625)"/>
      </defs>
      <use xlink:href="#DejaVuSans-46"/>
      <use x="50.269531" xlink:href="#DejaVuSans-69"/>
      <use x="78.052734" xlink:href="#DejaVuSans-74"/>
      <use x="117.261719" xlink:href="#DejaVuSans-6e"/>
      <use x="180.640625" xlink:href="#DejaVuSans-65"/>
      <use x="242.164062" xlink:href="#DejaVuSans-73"/>
      <use x="294.263672" xlink:href="#DejaVuSans-73"/>
     </g>
    </g>
   </g>
   <g id="line2d_25">
    <path clip-path="url(#p05816c8fb1)" d="M 73.832727 283.747803 
L 79.048061 283.631725 
L 90.782563 283.29287 
L 93.39023 283.174234 
L 99.909398 282.981325 
L 102.517065 282.752952 
L 103.820898 282.678876 
L 105.124732 282.87227 
L 106.428565 282.758213 
L 114.251566 282.840491 
L 119.4669 282.755659 
L 124.682234 282.773572 
L 125.986068 282.634433 
L 128.593735 282.704837 
L 129.897568 282.471817 
L 131.201402 282.651999 
L 135.112903 282.478034 
L 136.416736 282.564118 
L 139.024403 282.470786 
L 140.328237 282.548787 
L 141.63207 282.430221 
L 142.935904 282.062723 
L 146.847404 281.880871 
L 148.151238 282.101817 
L 149.455071 282.113014 
L 150.758905 281.758357 
L 153.366572 281.911506 
L 155.974239 281.936571 
L 157.278072 281.535352 
L 158.581906 281.867711 
L 159.885739 282.049438 
L 161.189573 281.572102 
L 165.101073 281.877625 
L 167.70874 281.12887 
L 169.012574 281.020953 
L 170.316407 280.651354 
L 171.620241 280.488976 
L 172.924074 280.779296 
L 174.227908 280.932729 
L 175.531742 280.304694 
L 178.139409 279.992743 
L 179.443242 280.212153 
L 180.747076 280.826657 
L 182.050909 280.283465 
L 183.354743 280.399826 
L 185.96241 280.187229 
L 187.266243 279.665416 
L 188.570077 279.743015 
L 189.87391 279.489927 
L 191.177744 279.543538 
L 192.481577 278.27939 
L 193.785411 278.895599 
L 195.089244 278.617577 
L 199.000745 277.21366 
L 200.304578 277.470141 
L 201.608412 275.927941 
L 202.912245 278.559477 
L 204.216079 277.958176 
L 205.519912 277.956763 
L 206.823746 276.684468 
L 208.127579 277.761763 
L 209.431413 276.951441 
L 210.735246 277.134197 
L 212.03908 276.049009 
L 214.646747 275.661621 
L 217.254414 274.871551 
L 218.558248 275.512821 
L 219.862081 274.811241 
L 221.165915 274.377525 
L 222.469748 274.336536 
L 223.773582 274.462097 
L 225.077415 274.378402 
L 226.381249 274.055255 
L 227.685082 273.082332 
L 228.988916 272.799393 
L 230.292749 273.313075 
L 231.596583 272.769793 
L 232.900416 272.687344 
L 234.20425 274.141047 
L 235.508083 272.238121 
L 236.811917 273.185434 
L 238.11575 273.809048 
L 239.419584 272.266974 
L 240.723417 272.111607 
L 242.027251 270.893617 
L 243.331084 274.017892 
L 244.634918 272.162511 
L 245.938751 272.603306 
L 247.242585 272.371678 
L 248.546418 272.421131 
L 249.850252 271.51024 
L 251.154085 271.494346 
L 252.457919 273.171082 
L 253.761752 273.941524 
L 255.065586 273.495772 
L 256.369419 272.601379 
L 257.673253 272.932158 
L 258.977087 272.173332 
L 260.28092 271.865732 
L 261.584754 272.245498 
L 262.888587 271.991253 
L 264.192421 273.112498 
L 265.496254 273.436052 
L 266.800088 273.565596 
L 268.103921 273.002742 
L 269.407755 272.759023 
L 270.711588 271.502827 
L 272.015422 271.034302 
L 273.319255 270.92195 
L 274.623089 272.595736 
L 275.926922 272.010595 
L 277.230756 271.867357 
L 278.534589 272.020545 
L 279.838423 271.606795 
L 281.142256 270.93634 
L 282.44609 270.429486 
L 283.749923 270.262228 
L 285.053757 270.620032 
L 286.35759 271.27227 
L 287.661424 269.763035 
L 288.965257 271.725116 
L 290.269091 270.980279 
L 291.572924 272.753151 
L 292.876758 271.304294 
L 294.180591 273.052201 
L 295.484425 268.884302 
L 296.788258 271.056869 
L 298.092092 268.844147 
L 299.395926 271.121144 
L 300.699759 270.020909 
L 302.003593 272.179428 
L 303.307426 271.838752 
L 304.61126 268.982482 
L 305.915093 270.027503 
L 307.218927 270.128225 
L 308.52276 270.364521 
L 309.826594 269.323383 
L 311.130427 270.464063 
L 312.434261 269.534659 
L 313.738094 267.985535 
L 315.041928 270.15039 
L 316.345761 269.192781 
L 317.649595 271.490326 
L 318.953428 268.890976 
L 320.257262 270.242286 
L 321.561095 269.742993 
L 322.864929 268.704203 
L 324.168762 269.497412 
L 326.776429 270.369363 
L 328.080263 269.258685 
L 329.384096 270.142897 
L 330.68793 268.914903 
L 331.991763 269.292236 
L 333.295597 269.95252 
L 334.59943 271.736383 
L 335.903264 269.537246 
L 337.207097 270.534403 
L 338.510931 267.577003 
L 339.814765 268.908678 
L 341.118598 271.111709 
L 342.422432 268.244967 
L 343.726265 268.957429 
L 345.030099 269.861397 
L 346.333932 268.836251 
L 347.637766 269.40413 
L 350.245433 269.092971 
L 351.549266 267.474178 
L 352.8531 269.105176 
L 354.156933 268.566991 
L 355.460767 269.277847 
L 356.7646 269.775241 
L 358.068434 268.861017 
L 359.372267 270.964563 
L 360.676101 270.906918 
L 361.979934 270.335481 
L 363.283768 268.016349 
L 364.587601 270.508708 
L 365.891435 271.168291 
L 367.195268 271.246614 
L 368.499102 269.340125 
L 369.802935 270.341754 
L 371.106769 268.052575 
L 372.410602 268.520842 
L 373.714436 268.40513 
L 375.018269 270.646902 
L 376.322103 271.290739 
L 377.625936 269.00959 
L 378.92977 271.705138 
L 380.233604 271.377256 
L 381.537437 268.506608 
L 382.841271 270.50556 
L 384.145104 268.740638 
L 385.448938 269.632054 
L 386.752771 269.076718 
L 388.056605 268.201093 
L 389.360438 269.571134 
L 390.664272 268.992182 
L 391.968105 270.345159 
L 393.271939 272.407514 
L 395.879606 270.581233 
L 397.183439 270.344783 
L 398.487273 269.537888 
L 398.487273 269.537888 
" style="fill:none;stroke:#0000ff;stroke-linecap:square;stroke-width:1.5;"/>
   </g>
   <g id="line2d_26">
    <path clip-path="url(#p05816c8fb1)" d="M 73.832727 284.090896 
L 80.351895 284.062437 
L 85.567229 283.976962 
L 92.086396 284.083781 
L 95.997897 284.159485 
L 98.605564 284.336297 
L 101.213231 284.328624 
L 105.124732 284.389857 
L 109.036232 284.253838 
L 118.163067 284.212638 
L 119.4669 284.333229 
L 124.682234 284.351436 
L 127.289901 284.310646 
L 128.593735 284.294775 
L 129.897568 284.571644 
L 131.201402 284.379848 
L 132.505235 284.342901 
L 135.112903 285.130428 
L 136.416736 284.793015 
L 137.72057 285.019577 
L 139.024403 284.274779 
L 140.328237 284.295788 
L 141.63207 284.712997 
L 142.935904 286.515899 
L 145.543571 285.827272 
L 146.847404 286.429489 
L 148.151238 285.417449 
L 149.455071 284.589355 
L 150.758905 285.525317 
L 152.062738 287.4638 
L 153.366572 285.985243 
L 154.670405 286.461249 
L 155.974239 285.106792 
L 157.278072 288.864308 
L 158.581906 286.613114 
L 159.885739 285.725612 
L 161.189573 286.562456 
L 162.493406 285.214406 
L 163.79724 286.003485 
L 165.101073 285.401927 
L 167.70874 289.033275 
L 169.012574 289.14912 
L 170.316407 289.013666 
L 171.620241 292.519514 
L 172.924074 289.663151 
L 174.227908 291.25329 
L 175.531742 290.588283 
L 176.835575 292.442855 
L 178.139409 292.090565 
L 179.443242 293.402032 
L 180.747076 287.788485 
L 182.050909 289.961299 
L 183.354743 289.128375 
L 184.658576 289.218646 
L 185.96241 289.506676 
L 187.266243 289.953231 
L 189.87391 290.584833 
L 191.177744 291.079191 
L 192.481577 292.738494 
L 193.785411 291.893239 
L 195.089244 292.793625 
L 196.393078 292.485277 
L 197.696911 291.022739 
L 199.000745 293.192571 
L 200.304578 292.439174 
L 201.608412 294.211463 
L 202.912245 291.556611 
L 204.216079 291.743785 
L 205.519912 292.144248 
L 206.823746 293.2333 
L 208.127579 292.98015 
L 209.431413 291.919154 
L 210.735246 292.028529 
L 212.03908 293.014834 
L 213.342913 293.067393 
L 215.950581 294.066706 
L 217.254414 292.525446 
L 218.558248 293.336565 
L 219.862081 294.458565 
L 222.469748 293.414417 
L 225.077415 293.259464 
L 226.381249 292.564723 
L 227.685082 294.176163 
L 228.988916 293.352157 
L 230.292749 293.518667 
L 232.900416 292.960188 
L 234.20425 293.580015 
L 235.508083 294.344978 
L 236.811917 293.454771 
L 238.11575 294.102742 
L 239.419584 293.251461 
L 240.723417 295.342216 
L 242.027251 292.964871 
L 243.331084 292.914313 
L 244.634918 292.598273 
L 245.938751 292.128254 
L 247.242585 293.280656 
L 248.546418 292.736782 
L 249.850252 292.905521 
L 251.154085 292.180173 
L 252.457919 293.473107 
L 253.761752 293.534491 
L 255.065586 292.573567 
L 257.673253 293.576859 
L 258.977087 294.005393 
L 260.28092 294.033132 
L 261.584754 292.852833 
L 262.888587 293.200756 
L 264.192421 294.093122 
L 265.496254 294.62824 
L 266.800088 293.242725 
L 268.103921 293.939708 
L 269.407755 293.919469 
L 270.711588 294.38968 
L 272.015422 293.301321 
L 273.319255 294.218333 
L 274.623089 294.856464 
L 275.926922 294.966154 
L 277.230756 294.433099 
L 278.534589 294.135878 
L 279.838423 294.260786 
L 281.142256 293.446151 
L 282.44609 293.779234 
L 283.749923 293.959245 
L 285.053757 293.001421 
L 286.35759 295.488 
L 287.661424 294.105874 
L 288.965257 294.653282 
L 290.269091 293.901477 
L 291.572924 292.724346 
L 292.876758 293.380281 
L 294.180591 292.66111 
L 295.484425 293.8867 
L 296.788258 292.572159 
L 298.092092 293.673902 
L 299.395926 292.382928 
L 300.699759 294.484957 
L 302.003593 292.679405 
L 303.307426 294.217982 
L 304.61126 293.156817 
L 305.915093 293.646101 
L 307.218927 293.152309 
L 308.52276 293.490956 
L 309.826594 294.917229 
L 311.130427 294.216632 
L 312.434261 293.718002 
L 313.738094 292.859025 
L 316.345761 293.124871 
L 317.649595 294.093306 
L 318.953428 293.354292 
L 320.257262 294.488547 
L 321.561095 292.484477 
L 322.864929 293.364167 
L 324.168762 292.633809 
L 325.472596 292.739659 
L 326.776429 293.392109 
L 328.080263 294.372646 
L 329.384096 291.905638 
L 330.68793 292.351286 
L 331.991763 293.652945 
L 333.295597 293.419565 
L 334.59943 292.09992 
L 335.903264 293.480129 
L 337.207097 293.370567 
L 338.510931 294.007153 
L 339.814765 293.729248 
L 341.118598 292.934731 
L 342.422432 293.72482 
L 343.726265 294.281485 
L 345.030099 292.542465 
L 346.333932 293.165825 
L 347.637766 293.167051 
L 348.941599 292.978054 
L 350.245433 293.752339 
L 351.549266 294.723188 
L 352.8531 292.861895 
L 354.156933 293.272405 
L 355.460767 292.530284 
L 356.7646 292.94924 
L 358.068434 293.556921 
L 360.676101 292.904087 
L 361.979934 293.662721 
L 363.283768 292.966095 
L 364.587601 293.33156 
L 365.891435 293.869983 
L 367.195268 293.795109 
L 368.499102 293.212353 
L 369.802935 292.395 
L 371.106769 293.388005 
L 372.410602 294.10322 
L 373.714436 292.580154 
L 375.018269 292.353949 
L 376.322103 293.481845 
L 377.625936 293.485007 
L 378.92977 292.403485 
L 380.233604 293.208459 
L 381.537437 293.170183 
L 382.841271 292.520598 
L 384.145104 294.176621 
L 385.448938 292.964646 
L 386.752771 292.458222 
L 388.056605 293.027571 
L 389.360438 293.948283 
L 390.664272 292.513707 
L 391.968105 293.88512 
L 393.271939 292.616239 
L 394.575772 292.960001 
L 395.879606 292.014377 
L 397.183439 293.942777 
L 398.487273 293.118039 
L 398.487273 293.118039 
" style="fill:none;stroke:#008000;stroke-dasharray:9.6,2.4,1.5,2.4;stroke-dashoffset:0;stroke-width:1.5;"/>
   </g>
   <g id="line2d_27">
    <path clip-path="url(#p05816c8fb1)" d="M 73.832727 283.40471 
L 76.440394 283.315607 
L 77.744228 283.151306 
L 81.655728 283.145559 
L 82.959562 282.930224 
L 86.871062 282.786485 
L 89.478729 282.635181 
L 90.782563 282.545741 
L 92.086396 282.279997 
L 93.39023 282.265198 
L 94.694064 282.123368 
L 95.997897 282.102781 
L 97.301731 281.778196 
L 98.605564 281.629164 
L 99.909398 281.675564 
L 101.213231 281.329138 
L 103.820898 281.027241 
L 105.124732 281.354684 
L 106.428565 281.206675 
L 107.732399 281.306956 
L 109.036232 281.235699 
L 110.340066 281.282903 
L 111.643899 281.464399 
L 114.251566 281.386253 
L 116.859233 281.334884 
L 119.4669 281.178089 
L 120.770734 281.225303 
L 123.378401 281.139929 
L 124.682234 281.195708 
L 125.986068 280.898061 
L 127.289901 281.079692 
L 128.593735 281.1149 
L 129.897568 280.371991 
L 131.201402 280.92415 
L 132.505235 280.783411 
L 133.809069 280.19265 
L 135.112903 279.82564 
L 136.416736 280.335222 
L 137.72057 279.904588 
L 139.024403 280.666792 
L 140.328237 280.801787 
L 141.63207 280.147445 
L 142.935904 277.609547 
L 144.239737 277.919727 
L 145.543571 278.391109 
L 146.847404 277.332254 
L 148.151238 278.786184 
L 149.455071 279.636674 
L 152.062738 276.289438 
L 153.366572 277.837769 
L 154.670405 277.322778 
L 155.974239 278.76635 
L 157.278072 274.206395 
L 158.581906 277.122308 
L 159.885739 278.373265 
L 161.189573 276.581748 
L 162.493406 278.195417 
L 163.79724 277.630143 
L 165.101073 278.353323 
L 167.70874 273.224465 
L 169.012574 272.892787 
L 170.316407 272.289043 
L 171.620241 268.458437 
L 172.924074 271.895441 
L 174.227908 270.612168 
L 175.531742 270.021105 
L 176.835575 267.854548 
L 178.139409 267.89492 
L 179.443242 267.022274 
L 180.747076 273.86483 
L 182.050909 270.605631 
L 183.354743 271.671277 
L 184.658576 271.3606 
L 185.96241 270.867781 
L 187.266243 269.377601 
L 188.570077 269.253424 
L 189.87391 268.395021 
L 191.177744 268.007886 
L 192.481577 263.820285 
L 193.785411 265.897958 
L 195.089244 264.44153 
L 196.393078 263.860962 
L 197.696911 264.43315 
L 199.000745 261.234748 
L 200.304578 262.501109 
L 201.608412 257.644419 
L 202.912245 265.562343 
L 204.216079 264.172567 
L 205.519912 263.769277 
L 206.823746 260.135637 
L 208.127579 262.543375 
L 209.431413 261.983728 
L 210.735246 262.239865 
L 212.03908 259.083184 
L 213.342913 258.65037 
L 214.646747 257.7148 
L 215.950581 256.465398 
L 217.254414 257.217657 
L 218.558248 257.689076 
L 219.862081 255.163917 
L 221.165915 254.826737 
L 222.469748 255.258654 
L 223.773582 255.562095 
L 225.077415 255.49734 
L 226.381249 255.545786 
L 227.685082 251.988502 
L 228.988916 252.246629 
L 230.292749 253.107482 
L 231.596583 252.276208 
L 232.900416 252.4145 
L 234.20425 254.702079 
L 235.508083 250.131265 
L 236.811917 252.916097 
L 238.11575 253.515355 
L 240.723417 248.880997 
L 242.027251 248.822364 
L 243.331084 255.121472 
L 244.634918 251.726749 
L 245.938751 253.078358 
L 247.242585 251.462701 
L 248.546418 252.105479 
L 249.850252 250.114959 
L 251.154085 250.80852 
L 252.457919 252.869058 
L 253.761752 254.348556 
L 255.065586 254.417976 
L 256.369419 252.103563 
L 257.673253 252.287457 
L 258.977087 250.341271 
L 260.28092 249.698333 
L 261.584754 251.638164 
L 262.888587 250.781749 
L 264.192421 252.131875 
L 265.496254 252.243863 
L 266.800088 253.888468 
L 268.103921 252.065775 
L 269.407755 251.598578 
L 270.711588 248.615974 
L 272.015422 248.767283 
L 273.319255 247.625567 
L 274.623089 250.335009 
L 275.926922 249.055036 
L 277.230756 249.301614 
L 278.534589 249.905213 
L 279.838423 248.952803 
L 281.142256 248.426528 
L 282.44609 247.079738 
L 283.749923 246.56521 
L 285.053757 248.238643 
L 286.35759 247.056539 
L 287.661424 245.420197 
L 288.965257 248.796949 
L 290.269091 248.059081 
L 291.572924 252.781956 
L 292.876758 249.228306 
L 294.180591 253.443292 
L 295.484425 243.881904 
L 296.788258 249.54158 
L 298.092092 244.014392 
L 299.395926 249.85936 
L 300.699759 245.55686 
L 302.003593 251.679451 
L 303.307426 249.459523 
L 304.61126 244.808146 
L 305.915093 246.408904 
L 307.218927 247.104141 
L 308.52276 247.238086 
L 309.826594 243.729536 
L 311.130427 246.711494 
L 312.434261 245.351317 
L 313.738094 243.112045 
L 315.041928 247.324959 
L 316.345761 245.260691 
L 317.649595 248.887347 
L 318.953428 244.427661 
L 320.257262 245.996026 
L 321.561095 247.00151 
L 322.864929 244.04424 
L 324.168762 246.361015 
L 325.472596 247.213379 
L 326.776429 247.346617 
L 328.080263 244.144724 
L 329.384096 248.380156 
L 330.68793 245.478521 
L 331.991763 244.931528 
L 333.295597 246.485476 
L 334.59943 251.372845 
L 335.903264 245.594363 
L 337.207097 247.698239 
L 338.510931 241.146853 
L 339.814765 244.088108 
L 341.118598 249.288686 
L 342.422432 242.765115 
L 343.726265 243.633372 
L 345.030099 247.180329 
L 346.333932 244.506677 
L 347.637766 245.641209 
L 348.941599 245.471127 
L 350.245433 244.433602 
L 351.549266 240.225169 
L 352.8531 245.348457 
L 354.156933 243.861578 
L 355.460767 246.025411 
L 356.7646 246.601242 
L 358.068434 244.165113 
L 359.372267 248.654478 
L 360.676101 248.909749 
L 361.979934 247.008241 
L 363.283768 243.066603 
L 364.587601 247.685856 
L 365.891435 248.466599 
L 367.195268 248.698119 
L 368.499102 245.467897 
L 369.802935 248.288508 
L 371.106769 242.717145 
L 372.410602 242.938463 
L 373.714436 244.230107 
L 375.018269 248.939855 
L 376.322103 249.099633 
L 377.625936 244.534173 
L 378.92977 251.00679 
L 380.233604 249.546052 
L 381.537437 243.843032 
L 382.841271 248.490523 
L 384.145104 243.304654 
L 385.448938 246.299463 
L 386.752771 245.695215 
L 388.056605 243.374615 
L 389.360438 245.193986 
L 390.664272 245.470656 
L 391.968105 246.805197 
L 393.271939 252.198789 
L 394.575772 250.004335 
L 395.879606 249.148088 
L 397.183439 246.746788 
L 398.487273 245.957737 
L 398.487273 245.957737 
" style="fill:none;stroke:#008000;stroke-dasharray:9.6,2.4,1.5,2.4;stroke-dashoffset:0;stroke-width:1.5;"/>
   </g>
   <g id="line2d_28">
    <path clip-path="url(#p05816c8fb1)" d="M 73.832727 280.918512 
L 75.136561 280.918512 
L 77.744228 279.79435 
L 79.048061 278.175557 
L 80.351895 277.815825 
L 81.655728 280.244015 
L 82.959562 278.805087 
L 84.263395 280.244015 
L 85.567229 277.905758 
L 86.871062 276.73663 
L 88.174896 279.974216 
L 89.478729 277.456093 
L 90.782563 277.186294 
L 92.086396 277.36616 
L 93.39023 276.646697 
L 94.694064 277.006428 
L 95.997897 276.062132 
L 97.301731 275.612468 
L 98.605564 276.152065 
L 99.909398 274.17354 
L 101.213231 276.197032 
L 102.517065 274.893004 
L 103.820898 274.30844 
L 105.124732 272.869512 
L 107.732399 275.477568 
L 109.036232 276.197032 
L 110.340066 276.017166 
L 112.947733 275.297702 
L 114.251566 275.882266 
L 116.859233 275.657434 
L 118.163067 276.286965 
L 119.4669 270.036624 
L 120.770734 272.015149 
L 122.074567 269.766825 
L 123.378401 273.40911 
L 124.682234 274.848037 
L 125.986068 270.890987 
L 127.289901 273.948708 
L 128.593735 274.803071 
L 129.897568 252.274866 
L 131.201402 267.293669 
L 132.505235 271.610451 
L 133.809069 260.548697 
L 135.112903 234.243308 
L 136.416736 250.746005 
L 137.72057 247.508419 
L 139.024403 272.150049 
L 140.328237 273.004412 
L 142.935904 215.312421 
L 144.239737 197.775494 
L 145.543571 218.280208 
L 146.847404 194.537908 
L 148.151238 227.903035 
L 149.455071 258.255407 
L 150.758905 222.147325 
L 152.062738 159.958687 
L 153.366572 219.269471 
L 154.670405 199.933885 
L 155.974239 229.836593 
L 157.278072 178.574808 
L 158.581906 212.299667 
L 159.885739 213.468795 
L 161.189573 204.520466 
L 162.493406 232.759414 
L 163.79724 211.805036 
L 165.101073 224.350683 
L 166.404907 186.893607 
L 167.70874 169.266747 
L 169.012574 193.638578 
L 170.316407 193.23388 
L 171.620241 53.568 
L 172.924074 176.866082 
L 174.227908 64.000223 
L 175.531742 155.417072 
L 176.835575 57.480084 
L 178.139409 59.05391 
L 179.443242 61.032435 
L 180.747076 205.419796 
L 182.050909 184.645283 
L 183.354743 191.615087 
L 184.658576 200.428517 
L 185.96241 185.005015 
L 187.266243 164.230502 
L 188.570077 194.807707 
L 189.87391 178.30501 
L 191.177744 165.984195 
L 192.481577 151.460022 
L 193.785411 167.872787 
L 195.089244 125.82913 
L 196.393078 162.027145 
L 197.696911 174.392926 
L 199.000745 169.761379 
L 200.304578 151.370089 
L 201.608412 145.74928 
L 202.912245 194.13321 
L 204.216079 173.943261 
L 205.519912 160.138552 
L 206.823746 168.052653 
L 208.127579 159.91372 
L 209.431413 174.752658 
L 210.735246 175.292256 
L 212.03908 165.53453 
L 213.342913 128.437186 
L 214.646747 157.395597 
L 215.950581 138.779476 
L 217.254414 151.145257 
L 218.558248 148.807 
L 219.862081 158.789558 
L 221.165915 139.274107 
L 222.469748 151.729821 
L 223.773582 168.907016 
L 225.077415 160.902983 
L 226.381249 167.513055 
L 227.685082 154.562709 
L 228.988916 134.912358 
L 230.292749 142.961358 
L 231.596583 169.536546 
L 232.900416 151.684855 
L 234.20425 160.453318 
L 235.508083 163.421105 
L 236.811917 154.697609 
L 238.11575 141.027799 
L 239.419584 159.868754 
L 240.723417 112.564019 
L 242.027251 162.746608 
L 243.331084 178.035211 
L 244.634918 170.525809 
L 245.938751 146.873442 
L 247.242585 145.074782 
L 248.546418 162.072111 
L 249.850252 152.359352 
L 251.154085 159.329156 
L 252.457919 155.641905 
L 253.761752 136.441219 
L 255.065586 148.132503 
L 256.369419 171.874803 
L 257.673253 158.924458 
L 258.977087 137.430481 
L 260.28092 128.572085 
L 261.584754 146.918408 
L 262.888587 156.856 
L 264.192421 133.383498 
L 265.496254 157.215731 
L 266.800088 156.136536 
L 268.103921 137.655314 
L 269.407755 171.829837 
L 270.711588 162.34191 
L 272.015422 164.050636 
L 273.319255 150.920425 
L 274.623089 149.121765 
L 275.926922 122.501611 
L 277.230756 123.355974 
L 278.534589 162.117078 
L 279.838423 153.708346 
L 281.142256 158.339893 
L 282.44609 142.331827 
L 283.749923 153.708346 
L 285.053757 159.733854 
L 286.35759 133.203632 
L 287.661424 152.089553 
L 288.965257 128.88685 
L 290.269091 134.912358 
L 291.572924 153.168748 
L 292.876758 128.347253 
L 294.180591 164.545267 
L 295.484425 127.088191 
L 296.788258 173.808362 
L 298.092092 159.059357 
L 299.395926 168.502317 
L 300.699759 126.548594 
L 302.003593 156.856 
L 303.307426 125.289532 
L 304.61126 138.015045 
L 305.915093 145.884179 
L 307.218927 148.267402 
L 308.52276 152.224452 
L 309.826594 129.201616 
L 311.130427 147.727805 
L 312.434261 151.23519 
L 313.738094 147.862704 
L 315.041928 160.902983 
L 316.345761 136.351286 
L 317.649595 119.893555 
L 318.953428 149.976128 
L 320.257262 136.486185 
L 321.561095 155.102307 
L 322.864929 165.354664 
L 324.168762 159.958687 
L 325.472596 133.833163 
L 326.776429 148.986866 
L 328.080263 141.432498 
L 329.384096 159.733854 
L 330.68793 157.800296 
L 331.991763 131.719738 
L 333.295597 142.376794 
L 334.59943 175.607021 
L 335.903264 155.911704 
L 337.207097 148.762034 
L 338.510931 150.605659 
L 339.814765 136.93585 
L 341.118598 171.91977 
L 342.422432 124.30027 
L 343.726265 131.629806 
L 345.030099 176.956015 
L 346.333932 159.104323 
L 347.637766 131.180141 
L 348.941599 138.194911 
L 350.245433 142.466727 
L 351.549266 128.302286 
L 352.8531 141.567397 
L 354.156933 140.533168 
L 355.460767 133.608331 
L 356.7646 162.386876 
L 358.068434 143.500956 
L 359.372267 143.860688 
L 360.676101 150.47076 
L 361.979934 165.53453 
L 363.283768 153.033849 
L 364.587601 149.661363 
L 365.891435 157.890229 
L 367.195268 167.82782 
L 368.499102 143.006324 
L 369.802935 143.725788 
L 371.106769 133.878129 
L 372.410602 158.160027 
L 373.714436 156.856 
L 375.018269 149.166732 
L 376.322103 152.809017 
L 377.625936 126.413694 
L 378.92977 174.707691 
L 380.233604 150.605659 
L 381.537437 156.316402 
L 382.841271 145.974112 
L 384.145104 142.241894 
L 385.448938 154.967408 
L 386.752771 154.922441 
L 388.056605 142.55666 
L 389.360438 155.731838 
L 390.664272 123.670739 
L 391.968105 155.237206 
L 393.271939 151.594922 
L 394.575772 168.052653 
L 395.879606 158.294927 
L 397.183439 120.568052 
L 398.487273 157.665396 
L 398.487273 157.665396 
" style="fill:none;stroke:#ff0000;stroke-linecap:square;stroke-width:1.5;"/>
   </g>
   <g id="patch_3">
    <path d="M 57.6 307.584 
L 57.6 41.472 
" style="fill:none;stroke:#000000;stroke-linecap:square;stroke-linejoin:miter;stroke-width:0.8;"/>
   </g>
   <g id="patch_4">
    <path d="M 414.72 307.584 
L 414.72 41.472 
" style="fill:none;stroke:#000000;stroke-linecap:square;stroke-linejoin:miter;stroke-width:0.8;"/>
   </g>
   <g id="patch_5">
    <path d="M 57.6 307.584 
L 414.72 307.584 
" style="fill:none;stroke:#000000;stroke-linecap:square;stroke-linejoin:miter;stroke-width:0.8;"/>
   </g>
   <g id="patch_6">
    <path d="M 57.6 41.472 
L 414.72 41.472 
" style="fill:none;stroke:#000000;stroke-linecap:square;stroke-linejoin:miter;stroke-width:0.8;"/>
   </g>
   <g id="text_15">
    <!-- Population's average and best fitness: Standard unconnected -->
    <g transform="translate(51.373125 35.472)scale(0.12 -0.12)">
     <defs>
      <path d="M 1259 4147 
L 1259 2394 
L 2053 2394 
Q 2494 2394 2734 2622 
Q 2975 2850 2975 3272 
Q 2975 3691 2734 3919 
Q 2494 4147 2053 4147 
L 1259 4147 
z
M 628 4666 
L 2053 4666 
Q 2838 4666 3239 4311 
Q 3641 3956 3641 3272 
Q 3641 2581 3239 2228 
Q 2838 1875 2053 1875 
L 1259 1875 
L 1259 0 
L 628 0 
L 628 4666 
z
" id="DejaVuSans-50" transform="scale(0.015625)"/>
      <path d="M 1159 525 
L 1159 -1331 
L 581 -1331 
L 581 3500 
L 1159 3500 
L 1159 2969 
Q 1341 3281 1617 3432 
Q 1894 3584 2278 3584 
Q 2916 3584 3314 3078 
Q 3713 2572 3713 1747 
Q 3713 922 3314 415 
Q 2916 -91 2278 -91 
Q 1894 -91 1617 61 
Q 1341 213 1159 525 
z
M 3116 1747 
Q 3116 2381 2855 2742 
Q 2594 3103 2138 3103 
Q 1681 3103 1420 2742 
Q 1159 2381 1159 1747 
Q 1159 1113 1420 752 
Q 1681 391 2138 391 
Q 2594 391 2855 752 
Q 3116 1113 3116 1747 
z
" id="DejaVuSans-70" transform="scale(0.015625)"/>
      <path d="M 544 1381 
L 544 3500 
L 1119 3500 
L 1119 1403 
Q 1119 906 1312 657 
Q 1506 409 1894 409 
Q 2359 409 2629 706 
Q 2900 1003 2900 1516 
L 2900 3500 
L 3475 3500 
L 3475 0 
L 2900 0 
L 2900 538 
Q 2691 219 2414 64 
Q 2138 -91 1772 -91 
Q 1169 -91 856 284 
Q 544 659 544 1381 
z
M 1991 3584 
L 1991 3584 
z
" id="DejaVuSans-75" transform="scale(0.015625)"/>
      <path d="M 603 4863 
L 1178 4863 
L 1178 0 
L 603 0 
L 603 4863 
z
" id="DejaVuSans-6c" transform="scale(0.015625)"/>
      <path d="M 1147 4666 
L 1147 2931 
L 616 2931 
L 616 4666 
L 1147 4666 
z
" id="DejaVuSans-27" transform="scale(0.015625)"/>
      <path id="DejaVuSans-20" transform="scale(0.015625)"/>
      <path d="M 191 3500 
L 800 3500 
L 1894 563 
L 2988 3500 
L 3597 3500 
L 2284 0 
L 1503 0 
L 191 3500 
z
" id="DejaVuSans-76" transform="scale(0.015625)"/>
      <path d="M 2906 1791 
Q 2906 2416 2648 2759 
Q 2391 3103 1925 3103 
Q 1463 3103 1205 2759 
Q 947 2416 947 1791 
Q 947 1169 1205 825 
Q 1463 481 1925 481 
Q 2391 481 2648 825 
Q 2906 1169 2906 1791 
z
M 3481 434 
Q 3481 -459 3084 -895 
Q 2688 -1331 1869 -1331 
Q 1566 -1331 1297 -1286 
Q 1028 -1241 775 -1147 
L 775 -588 
Q 1028 -725 1275 -790 
Q 1522 -856 1778 -856 
Q 2344 -856 2625 -561 
Q 2906 -266 2906 331 
L 2906 616 
Q 2728 306 2450 153 
Q 2172 0 1784 0 
Q 1141 0 747 490 
Q 353 981 353 1791 
Q 353 2603 747 3093 
Q 1141 3584 1784 3584 
Q 2172 3584 2450 3431 
Q 2728 3278 2906 2969 
L 2906 3500 
L 3481 3500 
L 3481 434 
z
" id="DejaVuSans-67" transform="scale(0.015625)"/>
      <path d="M 2906 2969 
L 2906 4863 
L 3481 4863 
L 3481 0 
L 2906 0 
L 2906 525 
Q 2725 213 2448 61 
Q 2172 -91 1784 -91 
Q 1150 -91 751 415 
Q 353 922 353 1747 
Q 353 2572 751 3078 
Q 1150 3584 1784 3584 
Q 2172 3584 2448 3432 
Q 2725 3281 2906 2969 
z
M 947 1747 
Q 947 1113 1208 752 
Q 1469 391 1925 391 
Q 2381 391 2643 752 
Q 2906 1113 2906 1747 
Q 2906 2381 2643 2742 
Q 2381 3103 1925 3103 
Q 1469 3103 1208 2742 
Q 947 2381 947 1747 
z
" id="DejaVuSans-64" transform="scale(0.015625)"/>
      <path d="M 3116 1747 
Q 3116 2381 2855 2742 
Q 2594 3103 2138 3103 
Q 1681 3103 1420 2742 
Q 1159 2381 1159 1747 
Q 1159 1113 1420 752 
Q 1681 391 2138 391 
Q 2594 391 2855 752 
Q 3116 1113 3116 1747 
z
M 1159 2969 
Q 1341 3281 1617 3432 
Q 1894 3584 2278 3584 
Q 2916 3584 3314 3078 
Q 3713 2572 3713 1747 
Q 3713 922 3314 415 
Q 2916 -91 2278 -91 
Q 1894 -91 1617 61 
Q 1341 213 1159 525 
L 1159 0 
L 581 0 
L 581 4863 
L 1159 4863 
L 1159 2969 
z
" id="DejaVuSans-62" transform="scale(0.015625)"/>
      <path d="M 2375 4863 
L 2375 4384 
L 1825 4384 
Q 1516 4384 1395 4259 
Q 1275 4134 1275 3809 
L 1275 3500 
L 2222 3500 
L 2222 3053 
L 1275 3053 
L 1275 0 
L 697 0 
L 697 3053 
L 147 3053 
L 147 3500 
L 697 3500 
L 697 3744 
Q 697 4328 969 4595 
Q 1241 4863 1831 4863 
L 2375 4863 
z
" id="DejaVuSans-66" transform="scale(0.015625)"/>
      <path d="M 750 794 
L 1409 794 
L 1409 0 
L 750 0 
L 750 794 
z
M 750 3309 
L 1409 3309 
L 1409 2516 
L 750 2516 
L 750 3309 
z
" id="DejaVuSans-3a" transform="scale(0.015625)"/>
      <path d="M 3425 4513 
L 3425 3897 
Q 3066 4069 2747 4153 
Q 2428 4238 2131 4238 
Q 1616 4238 1336 4038 
Q 1056 3838 1056 3469 
Q 1056 3159 1242 3001 
Q 1428 2844 1947 2747 
L 2328 2669 
Q 3034 2534 3370 2195 
Q 3706 1856 3706 1288 
Q 3706 609 3251 259 
Q 2797 -91 1919 -91 
Q 1588 -91 1214 -16 
Q 841 59 441 206 
L 441 856 
Q 825 641 1194 531 
Q 1563 422 1919 422 
Q 2459 422 2753 634 
Q 3047 847 3047 1241 
Q 3047 1584 2836 1778 
Q 2625 1972 2144 2069 
L 1759 2144 
Q 1053 2284 737 2584 
Q 422 2884 422 3419 
Q 422 4038 858 4394 
Q 1294 4750 2059 4750 
Q 2388 4750 2728 4690 
Q 3069 4631 3425 4513 
z
" id="DejaVuSans-53" transform="scale(0.015625)"/>
      <path d="M 3122 3366 
L 3122 2828 
Q 2878 2963 2633 3030 
Q 2388 3097 2138 3097 
Q 1578 3097 1268 2742 
Q 959 2388 959 1747 
Q 959 1106 1268 751 
Q 1578 397 2138 397 
Q 2388 397 2633 464 
Q 2878 531 3122 666 
L 3122 134 
Q 2881 22 2623 -34 
Q 2366 -91 2075 -91 
Q 1284 -91 818 406 
Q 353 903 353 1747 
Q 353 2603 823 3093 
Q 1294 3584 2113 3584 
Q 2378 3584 2631 3529 
Q 2884 3475 3122 3366 
z
" id="DejaVuSans-63" transform="scale(0.015625)"/>
     </defs>
     <use xlink:href="#DejaVuSans-50"/>
     <use x="56.677734" xlink:href="#DejaVuSans-6f"/>
     <use x="117.859375" xlink:href="#DejaVuSans-70"/>
     <use x="181.335938" xlink:href="#DejaVuSans-75"/>
     <use x="244.714844" xlink:href="#DejaVuSans-6c"/>
     <use x="272.498047" xlink:href="#DejaVuSans-61"/>
     <use x="333.777344" xlink:href="#DejaVuSans-74"/>
     <use x="372.986328" xlink:href="#DejaVuSans-69"/>
     <use x="400.769531" xlink:href="#DejaVuSans-6f"/>
     <use x="461.951172" xlink:href="#DejaVuSans-6e"/>
     <use x="525.330078" xlink:href="#DejaVuSans-27"/>
     <use x="552.820312" xlink:href="#DejaVuSans-73"/>
     <use x="604.919922" xlink:href="#DejaVuSans-20"/>
     <use x="636.707031" xlink:href="#DejaVuSans-61"/>
     <use x="697.986328" xlink:href="#DejaVuSans-76"/>
     <use x="757.166016" xlink:href="#DejaVuSans-65"/>
     <use x="818.689453" xlink:href="#DejaVuSans-72"/>
     <use x="859.802734" xlink:href="#DejaVuSans-61"/>
     <use x="921.082031" xlink:href="#DejaVuSans-67"/>
     <use x="984.558594" xlink:href="#DejaVuSans-65"/>
     <use x="1046.082031" xlink:href="#DejaVuSans-20"/>
     <use x="1077.869141" xlink:href="#DejaVuSans-61"/>
     <use x="1139.148438" xlink:href="#DejaVuSans-6e"/>
     <use x="1202.527344" xlink:href="#DejaVuSans-64"/>
     <use x="1266.003906" xlink:href="#DejaVuSans-20"/>
     <use x="1297.791016" xlink:href="#DejaVuSans-62"/>
     <use x="1361.267578" xlink:href="#DejaVuSans-65"/>
     <use x="1422.791016" xlink:href="#DejaVuSans-73"/>
     <use x="1474.890625" xlink:href="#DejaVuSans-74"/>
     <use x="1514.099609" xlink:href="#DejaVuSans-20"/>
     <use x="1545.886719" xlink:href="#DejaVuSans-66"/>
     <use x="1581.091797" xlink:href="#DejaVuSans-69"/>
     <use x="1608.875" xlink:href="#DejaVuSans-74"/>
     <use x="1648.083984" xlink:href="#DejaVuSans-6e"/>
     <use x="1711.462891" xlink:href="#DejaVuSans-65"/>
     <use x="1772.986328" xlink:href="#DejaVuSans-73"/>
     <use x="1825.085938" xlink:href="#DejaVuSans-73"/>
     <use x="1877.185547" xlink:href="#DejaVuSans-3a"/>
     <use x="1910.876953" xlink:href="#DejaVuSans-20"/>
     <use x="1942.664062" xlink:href="#DejaVuSans-53"/>
     <use x="2006.140625" xlink:href="#DejaVuSans-74"/>
     <use x="2045.349609" xlink:href="#DejaVuSans-61"/>
     <use x="2106.628906" xlink:href="#DejaVuSans-6e"/>
     <use x="2170.007812" xlink:href="#DejaVuSans-64"/>
     <use x="2233.484375" xlink:href="#DejaVuSans-61"/>
     <use x="2294.763672" xlink:href="#DejaVuSans-72"/>
     <use x="2334.126953" xlink:href="#DejaVuSans-64"/>
     <use x="2397.603516" xlink:href="#DejaVuSans-20"/>
     <use x="2429.390625" xlink:href="#DejaVuSans-75"/>
     <use x="2492.769531" xlink:href="#DejaVuSans-6e"/>
     <use x="2556.148438" xlink:href="#DejaVuSans-63"/>
     <use x="2611.128906" xlink:href="#DejaVuSans-6f"/>
     <use x="2672.310547" xlink:href="#DejaVuSans-6e"/>
     <use x="2735.689453" xlink:href="#DejaVuSans-6e"/>
     <use x="2799.068359" xlink:href="#DejaVuSans-65"/>
     <use x="2860.591797" xlink:href="#DejaVuSans-63"/>
     <use x="2915.572266" xlink:href="#DejaVuSans-74"/>
     <use x="2954.78125" xlink:href="#DejaVuSans-65"/>
     <use x="3016.304688" xlink:href="#DejaVuSans-64"/>
    </g>
   </g>
   <g id="legend_1">
    <g id="patch_7">
     <path d="M 334.779375 108.1845 
L 407.72 108.1845 
Q 409.72 108.1845 409.72 106.1845 
L 409.72 48.472 
Q 409.72 46.472 407.72 46.472 
L 334.779375 46.472 
Q 332.779375 46.472 332.779375 48.472 
L 332.779375 106.1845 
Q 332.779375 108.1845 334.779375 108.1845 
z
" style="fill:#ffffff;opacity:0.8;stroke:#cccccc;stroke-linejoin:miter;"/>
    </g>
    <g id="line2d_29">
     <path d="M 336.779375 54.570438 
L 356.779375 54.570438 
" style="fill:none;stroke:#0000ff;stroke-linecap:square;stroke-width:1.5;"/>
    </g>
    <g id="line2d_30"/>
    <g id="text_16">
     <!-- average -->
     <g transform="translate(364.779375 58.070438)scale(0.1 -0.1)">
      <use xlink:href="#DejaVuSans-61"/>
      <use x="61.279297" xlink:href="#DejaVuSans-76"/>
      <use x="120.458984" xlink:href="#DejaVuSans-65"/>
      <use x="181.982422" xlink:href="#DejaVuSans-72"/>
      <use x="223.095703" xlink:href="#DejaVuSans-61"/>
      <use x="284.375" xlink:href="#DejaVuSans-67"/>
      <use x="347.851562" xlink:href="#DejaVuSans-65"/>
     </g>
    </g>
    <g id="line2d_31">
     <path d="M 336.779375 69.248563 
L 356.779375 69.248563 
" style="fill:none;stroke:#008000;stroke-dasharray:9.6,2.4,1.5,2.4;stroke-dashoffset:0;stroke-width:1.5;"/>
    </g>
    <g id="line2d_32"/>
    <g id="text_17">
     <!-- -1 sd -->
     <g transform="translate(364.779375 72.748563)scale(0.1 -0.1)">
      <defs>
       <path d="M 313 2009 
L 1997 2009 
L 1997 1497 
L 313 1497 
L 313 2009 
z
" id="DejaVuSans-2d" transform="scale(0.015625)"/>
      </defs>
      <use xlink:href="#DejaVuSans-2d"/>
      <use x="36.083984" xlink:href="#DejaVuSans-31"/>
      <use x="99.707031" xlink:href="#DejaVuSans-20"/>
      <use x="131.494141" xlink:href="#DejaVuSans-73"/>
      <use x="183.59375" xlink:href="#DejaVuSans-64"/>
     </g>
    </g>
    <g id="line2d_33">
     <path d="M 336.779375 83.926688 
L 356.779375 83.926688 
" style="fill:none;stroke:#008000;stroke-dasharray:9.6,2.4,1.5,2.4;stroke-dashoffset:0;stroke-width:1.5;"/>
    </g>
    <g id="line2d_34"/>
    <g id="text_18">
     <!-- +1 sd -->
     <g transform="translate(364.779375 87.426688)scale(0.1 -0.1)">
      <defs>
       <path d="M 2944 4013 
L 2944 2272 
L 4684 2272 
L 4684 1741 
L 2944 1741 
L 2944 0 
L 2419 0 
L 2419 1741 
L 678 1741 
L 678 2272 
L 2419 2272 
L 2419 4013 
L 2944 4013 
z
" id="DejaVuSans-2b" transform="scale(0.015625)"/>
      </defs>
      <use xlink:href="#DejaVuSans-2b"/>
      <use x="83.789062" xlink:href="#DejaVuSans-31"/>
      <use x="147.412109" xlink:href="#DejaVuSans-20"/>
      <use x="179.199219" xlink:href="#DejaVuSans-73"/>
      <use x="231.298828" xlink:href="#DejaVuSans-64"/>
     </g>
    </g>
    <g id="line2d_35">
     <path d="M 336.779375 98.604813 
L 356.779375 98.604813 
" style="fill:none;stroke:#ff0000;stroke-linecap:square;stroke-width:1.5;"/>
    </g>
    <g id="line2d_36"/>
    <g id="text_19">
     <!-- best -->
     <g transform="translate(364.779375 102.104813)scale(0.1 -0.1)">
      <use xlink:href="#DejaVuSans-62"/>
      <use x="63.476562" xlink:href="#DejaVuSans-65"/>
      <use x="125" xlink:href="#DejaVuSans-73"/>
      <use x="177.099609" xlink:href="#DejaVuSans-74"/>
     </g>
    </g>
   </g>
  </g>
 </g>
 <defs>
  <clipPath id="p05816c8fb1">
   <rect height="266.112" width="357.12" x="57.6" y="41.472"/>
  </clipPath>
 </defs>
</svg>
